<svg xmlns="http://www.w3.org/2000/svg" width="414.04" height="390.123" viewBox="0 0 414.04 390.123">
  <g id="_05" data-name="05" transform="translate(1.893 3)">
    <g id="hand" transform="translate(0 82.984)">
      <path id="Path_125" data-name="Path 125" d="M1466.7,423.322c-43.71-2.053-60.268,18.478-133.185-5.5" transform="translate(-1333.513 -417.825)" fill="none" stroke="#3b3858" stroke-linecap="round" stroke-linejoin="round" stroke-width="3"/>
      <path id="Path_126" data-name="Path 126" d="M1333.513,492.318s34.836-9.272,72.056-11.193" transform="translate(-1333.513 -313.436)" fill="none" stroke="#3b3858" stroke-linecap="round" stroke-linejoin="round" stroke-width="3"/>
    </g>
    <g id="circle" transform="translate(12.317)">
      <circle id="Ellipse_40" data-name="Ellipse 40" cx="192.061" cy="192.061" r="192.061" stroke-width="6" stroke="#ff6496" stroke-linecap="round" stroke-linejoin="round" fill="none"/>
    </g>
    <g id="hands" transform="translate(63.11 52.453)">
      <path id="Path_127" data-name="Path 127" d="M1678.982,429.745s-30.529,21.789-79.537,27.087c-45.171,4.9-80.334-50.532-118.151-50.532-37.883,0-60.4,40.267-96.892,61.195-33.114,18.941-25.7,40.73,13.313,39.869,38.939-.861,64.638-39.67,81.526-39.339,26.557.53,104.174,64.7,132.39,96.031,20.332,22.517-4.769,61.394-32.319,33.445a399.007,399.007,0,0,0-54.9-46.558" transform="translate(-1347.242 -406.3)" fill="none" stroke="#3b3858" stroke-linecap="round" stroke-linejoin="round" stroke-width="3"/>
      <path id="Path_128" data-name="Path 128" d="M1414.612,474.1s33.049,25.564,45.436,41.26c23.971,30.332,56.691-11.523,28.808-35.829" transform="translate(-1262.881 -294.489)" fill="none" stroke="#3b3858" stroke-linecap="round" stroke-linejoin="round" stroke-width="3"/>
      <path id="Path_129" data-name="Path 129" d="M1416.345,485.884c37.419-34.174,60.665,5.232,31.392,35.167-8.017,8.146-23.775,25.5-33.249,34.637-22.319,21.657-57.288,1.192-36.824-26.756C1386.476,516.813,1405.351,495.951,1416.345,485.884Z" transform="translate(-1334.018 -296.869)" fill="none" stroke="#3b3858" stroke-linecap="round" stroke-linejoin="round" stroke-width="3"/>
      <path id="Path_130" data-name="Path 130" d="M1423.955,493.26c8.08-10.729,45.831-11.259,30.068,19.736-8.544,16.822-20.995,26.094-30.068,34.174-14.438,12.848-47.287,11.192-31.192-20.729" transform="translate(-1306.064 -273.847)" fill="none" stroke="#3b3858" stroke-linecap="round" stroke-linejoin="round" stroke-width="3"/>
      <path id="Path_131" data-name="Path 131" d="M1413.188,507.954s35.035,28.743,50.73,11.987c12.452-13.312-1.457-30.266-1.457-30.266" transform="translate(-1265.229 -268.805)" fill="none" stroke="#3b3858" stroke-linecap="round" stroke-linejoin="round" stroke-width="3"/>
      <path id="Path_132" data-name="Path 132" d="M1407.163,508.7s3.973,15.564,22.518,14.106,19.935-20.531,19.935-20.531" transform="translate(-1275.165 -248.026)" fill="none" stroke="#3b3858" stroke-linecap="round" stroke-linejoin="round" stroke-width="3"/>
      <path id="Path_133" data-name="Path 133" d="M1364.229,505.418c10.6-17.484,32.782-44.7,51.923-35.035,18.409,9.338,3.377,42.518-13.114,62.85s-29.008,18.411-37.023,13.113C1355.354,539.327,1354.229,521.842,1364.229,505.418Z" transform="translate(-1357.336 -303.953)" fill="none" stroke="#3b3858" stroke-linecap="round" stroke-linejoin="round" stroke-width="3"/>
      <path id="Path_134" data-name="Path 134" d="M1459.538,486.231a286.407,286.407,0,0,1,76.689-16.756" transform="translate(-1188.793 -302.117)" fill="none" stroke="#3b3858" stroke-linecap="round" stroke-linejoin="round" stroke-width="3"/>
    </g>
    <g id="line" transform="translate(68.545 56.228)">
      <line id="Line_20" data-name="Line 20" x1="271.667" y2="271.667" transform="translate(0 0)" fill="none" stroke="#ff6496" stroke-linecap="round" stroke-linejoin="round" stroke-width="6"/>
    </g>
  </g>
</svg>
