<svg xmlns="http://www.w3.org/2000/svg" width="391.257" height="401.32" viewBox="0 0 391.257 401.32">
  <g id="cough-svgrepo-com" transform="translate(0 1.506)">
    <g id="Group_103" data-name="Group 103" transform="translate(0 292.64)">
      <g id="Group_93" data-name="Group 93" transform="translate(7.951 7.473)">
        <path id="Path_443" data-name="Path 443" d="M10.451,92.516A.826.826,0,0,1,10.21,90.9l16.623-5.069a.826.826,0,0,1,.482,1.579L10.692,92.48A.792.792,0,0,1,10.451,92.516Z" transform="translate(-9.625 -85.793)" fill="#c9ebf2"/>
      </g>
      <g id="Group_94" data-name="Group 94" transform="translate(7.652 1.59)">
        <path id="Path_444" data-name="Path 444" d="M26.1,81.57l-.065,0L10.026,80.321a.826.826,0,0,1,.129-1.647l16.011,1.247a.826.826,0,0,1-.064,1.65Z" transform="translate(-9.264 -78.671)" fill="#c9ebf2"/>
      </g>
      <g id="Group_95" data-name="Group 95" transform="translate(12.893 12.939)">
        <path id="Path_445" data-name="Path 445" d="M16.436,104.032a.826.826,0,0,1-.514-1.474l12.59-9.969a.826.826,0,1,1,1.026,1.3l-12.59,9.969A.819.819,0,0,1,16.436,104.032Z" transform="translate(-15.609 -92.41)" fill="#c9ebf2"/>
      </g>
      <g id="Group_96" data-name="Group 96" transform="translate(6.303 5.653)">
        <circle id="Ellipse_276" data-name="Ellipse 276" cx="0.828" cy="0.828" r="0.828" fill="#c9ebf2"/>
      </g>
      <g id="Group_97" data-name="Group 97" transform="translate(18.36 11.714)">
        <circle id="Ellipse_277" data-name="Ellipse 277" cx="0.828" cy="0.828" r="0.828" fill="#c9ebf2"/>
      </g>
      <g id="Group_98" data-name="Group 98" transform="translate(0 24.435)">
        <circle id="Ellipse_278" data-name="Ellipse 278" cx="0.828" cy="0.828" r="0.828" fill="#c9ebf2"/>
      </g>
      <g id="Group_99" data-name="Group 99" transform="translate(20.015 27.364)">
        <circle id="Ellipse_279" data-name="Ellipse 279" cx="0.828" cy="0.828" r="0.828" fill="#c9ebf2"/>
      </g>
      <g id="Group_100" data-name="Group 100" transform="translate(27.758 15.649)">
        <circle id="Ellipse_280" data-name="Ellipse 280" cx="0.828" cy="0.828" r="0.828" fill="#c9ebf2"/>
      </g>
      <g id="Group_101" data-name="Group 101" transform="translate(20.842 5.653)">
        <circle id="Ellipse_281" data-name="Ellipse 281" cx="0.828" cy="0.828" r="0.828" fill="#c9ebf2"/>
      </g>
      <g id="Group_102" data-name="Group 102" transform="translate(19.187)">
        <circle id="Ellipse_282" data-name="Ellipse 282" cx="0.828" cy="0.828" r="0.828" fill="#c9ebf2"/>
      </g>
    </g>
    <g id="Group_104" data-name="Group 104" transform="translate(26.31)">
      <path id="Path_446" data-name="Path 446" d="M341.4,282.846c7.244-21.448,59.922-82.306,53.337-151.859S344.027,6.371,243.28,3.475,87.871,49.264,76.015,89.837s-13.826,34.2-7.244,53.9S34.283,194.177,31.9,215.612c-1.226,11.012,23.592,13.354,23.592,13.354s.12,5.6-3.011,18.919a44.722,44.722,0,0,1,13.4-1.2c15.675.7,20.329,3.233,21.272,8.571.967,5.494-4.725,8.948-10.878,11.757-4.47,2.039-20.127,6.071-20.127,6.071s6.688,43.856,18.147,47.651c17.729,5.871,29.95,4.1,37.977,2.859a55.476,55.476,0,0,1,17.389-.271c7.967,1.565,19.908,11.443,19.908,11.443-.34-.309-2.519-2.744,0,0,9.3,10.133,5.756,16.759,11.4,66.9H347.318S334.147,304.294,341.4,282.846Z" transform="translate(-31.852 -3.351)" fill="none" stroke="#3b3858" stroke-width="3"/>
    </g>
  </g>
</svg>
