<svg xmlns="http://www.w3.org/2000/svg" xmlns:xlink="http://www.w3.org/1999/xlink" width="976.236" height="721.385" viewBox="0 0 976.236 721.385">
  <defs>
    <linearGradient id="linear-gradient" x1="0.5" y1="1" x2="0.5" gradientUnits="objectBoundingBox">
      <stop offset="0" stop-color="gray" stop-opacity="0.251"/>
      <stop offset="0.54" stop-color="gray" stop-opacity="0.122"/>
      <stop offset="1" stop-color="gray" stop-opacity="0.102"/>
    </linearGradient>
    <linearGradient id="linear-gradient-2" x1="0.5" y1="1" x2="0.5" y2="0" xlink:href="#linear-gradient"/>
  </defs>
  <g id="Group_80" data-name="Group 80" transform="translate(-0.005 -0.003)">
    <path id="Path_319" data-name="Path 319" d="M92.026,356.76h84.841V472.409H98.229c-.2,1.2-.4,2.383-.627,3.578h79.264v93.251a1.2,1.2,0,0,1-.393-.151q-3.344-1.329-6.688-2.817c-.477-.217-.945-.443-1.43-.652q-3.344-1.58-6.688-3.344c-.777-.41-1.555-.836-2.316-1.271a139.146,139.146,0,0,1-33.358-25.967c-.293-.276-.56-.577-.836-.836-1.354-1.471-2.684-2.959-3.971-4.481-.485-.56-.953-1.129-1.43-1.672-1.522-1.856-2.993-3.779-4.414-5.71-.217-.293-.418-.577-.627-.836a123.5,123.5,0,0,1-14.38-26c-.117-.276-.226-.577-.334-.836-1.154-2.926-2.2-5.894-3.1-8.92-.385-1.262-.761-2.508-1.079-3.821-.117-.376-.209-.761-.309-1.137-4.7-18.518-5.242-37.764-5.242-56.917V417.18q.1-11.73.276-23.434.067-3.01.125-6.044.176-7.683.5-15.4c.05-1.421.117-2.851.192-4.264q.05-1.229.125-2.458Q91.716,361.141,92.026,356.76Z" transform="translate(-28.056 -74.013)" fill="#1078ad" opacity="0.1"/>
    <path id="Path_320" data-name="Path 320" d="M184.722,191.207H138.18a354.274,354.274,0,0,1,24.755-34.06c6.922-8.494,14.212-16.771,21.787-24.747Z" transform="translate(-35.911 -37.225)" fill="#1078ad" opacity="0.1"/>
    <path id="Path_321" data-name="Path 321" d="M177.263,207V328.626H92.69c0-.351.05-.711.084-1.062.075-.961.15-1.915.234-2.876.084-1.12.192-2.241.3-3.344s.217-2.441.351-3.653.242-2.441.376-3.654.268-2.424.418-3.628.284-2.425.451-3.628c.125-.995.251-2,.393-3,.192-1.413.393-2.826.6-4.23a4.021,4.021,0,0,1,.1-.635,291.726,291.726,0,0,1,6.22-30.532,226.07,226.07,0,0,1,10.492-30.933A232.309,232.309,0,0,1,128.5,207Z" transform="translate(-28.452 -49.457)" fill="#1078ad" opacity="0.1"/>
    <path id="Path_322" data-name="Path 322" d="M218.09,301.307V416.955H399.309V301.307Zm0,119.227v99.321c1.037.209,2.057.418,3.085.594,1.379.268,2.767.51,4.18.719l.836.117c.552.092,1.112.167,1.672.234,1.4.2,2.792.351,4.18.485.652.067,1.329.117,1.99.176l1.614.117h0c.878.067,1.747.117,2.617.151.535,0,1.07.042,1.614.058s.836,0,1.271,0H245.8c.719,0,1.438,0,2.149-.067h.042a12.807,12.807,0,0,0,1.5-.058,3.681,3.681,0,0,0,.426,0,10.081,10.081,0,0,0,1.237-.05,1.728,1.728,0,0,1,.284,0c.928-.059,1.864-.134,2.809-.217s1.839-.184,2.784-.284l1.9-.234a166.492,166.492,0,0,0,22.949-4.882c16.913-4.715,33.441-11.312,50.346-16.135,21.837-6.228,45.982-9.3,67.083-1.714V420.534ZM399.309,172.541V18.577a232.86,232.86,0,0,0-58.873,6.9C294.545,37,253.337,62.009,218.09,93.946v78.587h9.121v3.57H218.09V297.729H399.309V176.1H264.523v-3.578Zm232.819-52.01c-11.353-.4-22.64-3.988-32.856-9.547-19.513-10.609-35.113-27.012-52.536-40.84-36.2-28.818-81.1-46.216-127.152-50.53V172.541H678.259l.644-.677Zm23.568-4.18,24.989,27.43V109.136c-8.411,1.062-15.734,3.528-24.989,7.182Zm24.989,428.166V420.534H627.4c-.134-.527-.284-1.062-.451-1.6.159.535.3,1.07.443,1.6h-207.8V510.19c1.973,1.463,3.921,3.01,5.852,4.565h0q3.127,2.558,6.212,5.175l2.073,1.714c.995.836,2.006,1.672,3.01,2.466q3.018,2.433,6.078,4.815,1.53,1.2,3.077,2.366a419.748,419.748,0,0,0,51.533,33.7c4.03,2.249,8.1,4.414,12.2,6.529q4.088,2.107,8.235,4.13,6.22,3.035,12.541,5.852h0a460.316,460.316,0,0,0,122.061,35.548q14.028,2.065,28.183,3.261V544.5h.836ZM419.582,176.1V297.729h261.1V176.1Zm0,125.188V416.955h261.1V301.307ZM700.949,108.969v38.708l31.886-35Q716.985,110.056,700.949,108.969Zm0,192.338V416.955H954.894V301.307ZM954,553.689l.894-133.155H700.949V621.658a457.581,457.581,0,0,0,49.075-.594h.285q11.7-.752,23.3-2.14h.176a428.459,428.459,0,0,0,119.745-31.987M1003.886,320.3q-1.446-3.344-2.968-6.688c-1.889-4.18-3.879-8.243-5.936-12.3H975.168v115.64h50.087C1025.213,384.2,1016.919,350.758,1003.886,320.3ZM975.168,420.534V535.07c14.1-13.519,26.034-28.994,34.612-46.684,10.325-21.31,15.049-44.368,15.441-67.861Zm0-152.927v30.1h17.958a326.979,326.979,0,0,0-17.958-30.1ZM802.945,131.667c-1.321-.51-2.65-1.02-3.979-1.5a361.3,361.3,0,0,0-42.888-12.892L707.27,170.827h0l-.953,1.028.627.677H880.655a371.121,371.121,0,0,0-77.709-40.865ZM885.754,176.1H704.511l-3.561,3.252V297.729H954.894V240.377a361.57,361.57,0,0,0-69.14-64.274Z" transform="translate(-49.014 -18.56)" fill="#1078ad" opacity="0.1"/>
    <path id="Path_323" data-name="Path 323" d="M177.263,280.39v60.27H92.69c0-.351.05-.711.084-1.062.075-.961.15-1.915.234-2.876.084-1.12.192-2.241.3-3.344s.217-2.441.351-3.653.242-2.441.376-3.654.268-2.425.418-3.628.284-2.425.451-3.628c.125-.995.251-2,.393-3,.192-1.413.393-2.826.6-4.23a4.021,4.021,0,0,1,.1-.635,291.716,291.716,0,0,1,6.22-30.532Z" transform="translate(-28.452 -61.491)" fill="#1078ad" opacity="0.1"/>
    <path id="Path_324" data-name="Path 324" d="M92.026,356.76h84.841V472.409H98.229c-.2,1.2-.4,2.383-.627,3.578h79.264v93.251a1.2,1.2,0,0,1-.393-.151q-3.344-1.329-6.688-2.817c-.477-.217-.945-.443-1.43-.652q-3.344-1.58-6.688-3.344c-.777-.41-1.555-.836-2.316-1.271a139.146,139.146,0,0,1-33.358-25.967c-.293-.276-.56-.577-.836-.836-1.354-1.471-2.684-2.959-3.971-4.481-.485-.56-.953-1.129-1.43-1.672-1.522-1.856-2.993-3.779-4.414-5.71-.217-.293-.418-.577-.627-.836a123.5,123.5,0,0,1-14.38-26c-.117-.276-.226-.577-.334-.836-1.154-2.926-2.2-5.894-3.1-8.92-.385-1.262-.761-2.508-1.079-3.821-.117-.376-.209-.761-.309-1.137-4.7-18.518-5.242-37.764-5.242-56.917V417.18q.1-11.73.276-23.434.067-3.01.125-6.044.176-7.683.5-15.4c.05-1.421.117-2.851.192-4.264q.05-1.229.125-2.458Q91.716,361.141,92.026,356.76Z" transform="translate(-28.056 -74.013)" fill="#1078ad" opacity="0.1"/>
    <path id="Path_325" data-name="Path 325" d="M265.928,202.361v104.2h-63.8v-104.2h9.1V167.08h37.337v35.281Z" transform="translate(-33.062 -27.395)" fill="#1078ad" opacity="0.1"/>
    <rect id="Rectangle_76" data-name="Rectangle 76" width="63.789" height="115.648" transform="translate(169.068 282.739)" fill="#1078ad" opacity="0.1"/>
    <path id="Path_326" data-name="Path 326" d="M218.09,499.37h63.789v96.144a165.217,165.217,0,0,1-22.949,4.874c-.635.092-1.262.167-1.9.234-.936.109-1.864.209-2.792.293l-2.8.226h-.284l-1.237.067h-.426c-.5,0-.995.059-1.5.067h-.042c-.719,0-1.43.05-2.149.067h-5.919a13.2,13.2,0,0,1-1.622-.067q-1.288-.05-2.608-.151h0l-1.614-.117c-.669-.05-1.338-.117-2-.184q-2.107-.184-4.18-.477l-1.672-.234-.836-.117c-1.4-.209-2.784-.443-4.18-.711-1.037-.184-2.057-.393-3.085-.611Z" transform="translate(-49.014 -97.396)" fill="#1078ad" opacity="0.1"/>
    <rect id="Rectangle_77" data-name="Rectangle 77" width="52.603" height="116.501" transform="translate(579.058 162.659)" fill="#1078ad" opacity="0.1"/>
    <path id="Path_327" data-name="Path 327" d="M704.252,338.19V453.847H443.15V403.961H582.224v29.428H651.64v-95.2Z" transform="translate(-72.582 -55.451)" fill="#1078ad" opacity="0.1"/>
    <path id="Path_328" data-name="Path 328" d="M721.029,623.066a4.723,4.723,0,0,1-.836-.05v75.87q-14.137-1.162-28.174-3.252A460.928,460.928,0,0,1,569.908,660.1q-16.829-7.591-32.973-16.545a421.27,421.27,0,0,1-51.525-33.7q-6.17-4.715-12.156-9.639c-2.767-2.291-5.509-4.632-8.3-6.9-1.923-1.563-3.871-3.11-5.852-4.581V499.057H666.9c-.15-.535-.284-1.062-.435-1.6.159.535.309,1.062.443,1.6H720.2v123.95C720.477,623.015,720.753,623.041,721.029,623.066Z" transform="translate(-88.532 -97.083)" fill="#1078ad" opacity="0.1"/>
    <path id="Path_329" data-name="Path 329" d="M928.787,194.429H894.51V183.777h15.358V152.05q2,.736,3.979,1.5v30.223h14.932Z" transform="translate(-159.924 -40.447)" fill="#1078ad" opacity="0.1"/>
    <path id="Path_330" data-name="Path 330" d="M995.169,328.626H826.876a.1.1,0,0,0,.05,0H795.65v-116.5H804.5v86.112h40.413v-51h33.4V207h34.278v40.263h33.383v51h49.209Z" transform="translate(-143.715 -49.457)" fill="#1078ad" opacity="0.1"/>
    <path id="Path_331" data-name="Path 331" d="M795.65,356.76V472.409H995.178V356.76Zm253.661,251.771.284-91.546H995.178V476.02H795.65V677.111a457.554,457.554,0,0,0,49.075-.594h.284q11.7-.753,23.3-2.14h.176A428.463,428.463,0,0,0,988.23,642.391" transform="translate(-143.715 -74.013)" fill="#1078ad" opacity="0.1"/>
    <path id="Path_332" data-name="Path 332" d="M1127.162,499.37H1173.7c-.4,23.484-5.117,46.55-15.441,67.853-8.578,17.7-20.508,33.174-34.612,46.692V540.344h3.511Z" transform="translate(-197.496 -97.396)" fill="#1078ad" opacity="0.1"/>
    <path id="Path_333" data-name="Path 333" d="M1174.426,476.134H1127.85V379.48h25.206C1166.09,409.937,1174.384,443.378,1174.426,476.134Z" transform="translate(-198.185 -77.738)" fill="#1078ad" opacity="0.1"/>
    <rect id="Rectangle_78" data-name="Rectangle 78" width="28.183" height="36.526" transform="translate(603.487 195.047)" fill="#1078ad" opacity="0.1"/>
    <rect id="Rectangle_79" data-name="Rectangle 79" width="28.183" height="8.41" transform="translate(603.487 270.758)" fill="#1078ad" opacity="0.1"/>
    <rect id="Rectangle_80" data-name="Rectangle 80" width="28.183" height="24.538" transform="translate(603.487 282.739)" fill="#1078ad" opacity="0.1"/>
    <rect id="Rectangle_81" data-name="Rectangle 81" width="28.183" height="36.526" transform="translate(603.487 346.469)" fill="#1078ad" opacity="0.1"/>
    <rect id="Rectangle_82" data-name="Rectangle 82" width="28.183" height="36.526" transform="translate(603.487 422.18)" fill="#1078ad" opacity="0.1"/>
    <path id="Path_334" data-name="Path 334" d="M765.883,642.132a4.055,4.055,0,0,1,.836.059,4.712,4.712,0,0,1-.836-.05v8.486H737.7V614.1h28.183Z" transform="translate(-134.213 -116.208)" fill="#1078ad" opacity="0.1"/>
    <path id="Path_335" data-name="Path 335" d="M765.883,704.65v28.208q-14.146-1.162-28.183-3.252V704.65Z" transform="translate(-134.213 -131.056)" fill="#1078ad" opacity="0.1"/>
    <rect id="Rectangle_83" data-name="Rectangle 83" width="120.782" height="2.684" transform="translate(370.568 395.712)" fill="#1078ad" opacity="0.1"/>
    <rect id="Rectangle_84" data-name="Rectangle 84" width="120.782" height="10.283" transform="translate(370.568 401.965)" fill="#1078ad" opacity="0.1"/>
    <rect id="Rectangle_85" data-name="Rectangle 85" width="120.782" height="16.537" transform="translate(370.568 445.957)" fill="#1078ad" opacity="0.1"/>
    <path id="Path_336" data-name="Path 336" d="M581.029,612.08v16.537H486.558q-6.17-4.7-12.156-9.648c-2.776-2.282-5.518-4.623-8.3-6.889Z" transform="translate(-89.679 -115.877)" fill="#1078ad" opacity="0.1"/>
    <path id="Path_337" data-name="Path 337" d="M595.147,672.17v16.578h-9.974Q568.344,681.158,552.2,672.2Z" transform="translate(-103.797 -125.73)" fill="#1078ad" opacity="0.1"/>
    <rect id="Rectangle_86" data-name="Rectangle 86" width="23.777" height="23.777" transform="translate(701.011 293.95)" fill="#1078ad" opacity="0.1"/>
    <rect id="Rectangle_87" data-name="Rectangle 87" width="23.777" height="23.777" transform="translate(186.198 183.167)" fill="#1078ad" opacity="0.1"/>
    <rect id="Rectangle_88" data-name="Rectangle 88" width="23.777" height="23.777" transform="translate(186.198 238.395)" fill="#1078ad" opacity="0.1"/>
    <rect id="Rectangle_89" data-name="Rectangle 89" width="23.777" height="23.777" transform="translate(186.198 293.624)" fill="#1078ad" opacity="0.1"/>
    <rect id="Rectangle_90" data-name="Rectangle 90" width="23.777" height="23.777" transform="translate(186.198 348.844)" fill="#1078ad" opacity="0.1"/>
    <rect id="Rectangle_91" data-name="Rectangle 91" width="23.777" height="23.777" transform="translate(186.198 404.072)" fill="#1078ad" opacity="0.1"/>
    <rect id="Rectangle_92" data-name="Rectangle 92" width="23.777" height="23.777" transform="translate(186.198 459.3)" fill="#1078ad" opacity="0.1"/>
    <rect id="Rectangle_93" data-name="Rectangle 93" width="23.777" height="23.777" transform="translate(791.779 293.95)" fill="#1078ad" opacity="0.1"/>
    <rect id="Rectangle_94" data-name="Rectangle 94" width="23.777" height="23.777" transform="translate(701.011 352.597)" fill="#1078ad" opacity="0.1"/>
    <rect id="Rectangle_95" data-name="Rectangle 95" width="23.777" height="23.777" transform="translate(791.779 352.597)" fill="#1078ad" opacity="0.1"/>
    <rect id="Rectangle_96" data-name="Rectangle 96" width="23.777" height="23.777" transform="translate(701.011 411.237)" fill="#1078ad" opacity="0.1"/>
    <rect id="Rectangle_97" data-name="Rectangle 97" width="23.777" height="23.777" transform="translate(791.779 411.237)" fill="#1078ad" opacity="0.1"/>
    <rect id="Rectangle_98" data-name="Rectangle 98" width="23.777" height="23.777" transform="translate(701.011 469.884)" fill="#1078ad" opacity="0.1"/>
    <rect id="Rectangle_99" data-name="Rectangle 99" width="23.777" height="23.777" transform="translate(791.779 469.884)" fill="#1078ad" opacity="0.1"/>
    <rect id="Rectangle_100" data-name="Rectangle 100" width="23.777" height="23.777" transform="translate(701.011 528.532)" fill="#1078ad" opacity="0.1"/>
    <rect id="Rectangle_101" data-name="Rectangle 101" width="23.777" height="23.777" transform="translate(791.779 528.532)" fill="#1078ad" opacity="0.1"/>
    <path id="Path_338" data-name="Path 338" d="M838.4,717.663V702.33h23.769v13.151Z" transform="translate(-137.389 -115.158)" fill="#1078ad" opacity="0.1"/>
    <path id="Path_339" data-name="Path 339" d="M96.53,316.91v13.6h81.363v-13.6Zm8.1,12.749H97.943V317.771h6.688Zm8.1,0h-6.688V317.771h6.688Zm8.084,0h-6.688V317.771h6.688Zm8.1,0H122.23V317.771h6.688Zm8.093,0h-6.688V317.771h6.688Zm8.1,0h-6.688V317.771h6.688Zm8.1,0h-6.688V317.771h6.688Zm8.093,0h-6.688V317.771h6.688Zm8.093,0H162.71V317.771H169.4Zm8.1,0h-6.688V317.771H177.5Z" transform="translate(-29.082 -67.479)" fill="#1078ad" opacity="0.1"/>
    <path id="Path_340" data-name="Path 340" d="M96.53,364.27v13.6h81.363v-13.6Zm8.1,12.75H97.943V365.131h6.688Zm8.1,0h-6.688V365.131h6.688Zm8.084,0h-6.688V365.131h6.688Zm8.1,0H122.23V365.131h6.688Zm8.093,0h-6.688V365.131h6.688Zm8.1,0h-6.688V365.131h6.688Zm8.1,0h-6.688V365.131h6.688Zm8.093,0h-6.688V365.131h6.688Zm8.093,0H162.71V365.131H169.4Zm8.1,0h-6.688V365.131H177.5Z" transform="translate(-29.082 -75.245)" fill="#1078ad" opacity="0.1"/>
    <path id="Path_341" data-name="Path 341" d="M96.53,411.64v13.594h81.363V411.64Zm8.1,12.733H97.943V412.484h6.688Zm8.1,0h-6.688V412.484h6.688Zm8.084,0h-6.688V412.484h6.688Zm8.1,0H122.23V412.484h6.688Zm8.093,0h-6.688V412.484h6.688Zm8.1,0h-6.688V412.484h6.688Zm8.1,0h-6.688V412.484h6.688Zm8.093,0h-6.688V412.484h6.688Zm8.093,0H162.71V412.484H169.4Zm8.1,0h-6.688V412.484H177.5Z" transform="translate(-29.082 -83.012)" fill="#1078ad" opacity="0.1"/>
    <path id="Path_342" data-name="Path 342" d="M96.53,459v13.594h81.363V459Zm8.1,12.741H97.943V459.836h6.688Zm8.1,0h-6.688V459.836h6.688Zm8.084,0h-6.688V459.836h6.688Zm8.1,0H122.23V459.836h6.688Zm8.093,0h-6.688V459.836h6.688Zm8.1,0h-6.688V459.836h6.688Zm8.1,0h-6.688V459.836h6.688Zm8.093,0h-6.688V459.836h6.688Zm8.093,0H162.71V459.836H169.4Zm8.1,0h-6.688V459.836H177.5Z" transform="translate(-29.082 -90.777)" fill="#1078ad" opacity="0.1"/>
    <path id="Path_343" data-name="Path 343" d="M97,506.34c.318,1.287.694,2.558,1.078,3.821V507.2h6.688v11.88H101.18c.1.284.209.577.326.836H178V506.34Zm15.885,12.741H106.2V507.2h6.688Zm8.084,0h-6.688V507.2h6.688Zm8.1,0h-6.688V507.2h6.688Zm8.093,0h-6.688V507.2h6.688Zm8.1,0h-6.688V507.2h6.688Zm8.1,0h-6.688V507.2h6.688Zm8.093,0H154.77V507.2h6.688Zm8.093,0h-6.688V507.2h6.688Zm8.1,0h-6.688V507.2h6.688Z" transform="translate(-29.159 -98.539)" fill="#1078ad" opacity="0.1"/>
    <path id="Path_344" data-name="Path 344" d="M119.54,553.7c.217.268.418.569.627.836h4.423v5.71l1.43,1.672V554.5h6.688v11.989h-2.751c.268.276.527.569.836.836h50.856V553.7Zm21.285,12.791h-6.688V554.553h6.688Zm8.1,0h-6.688V554.553h6.688Zm8.1,0h-6.688V554.553h6.688Zm8.093,0h-6.688V554.553h6.688Zm8.093,0h-6.688V554.553h6.688Zm8.1,0h-6.688V554.553h6.688Z" transform="translate(-32.855 -106.305)" fill="#1078ad" opacity="0.1"/>
    <path id="Path_345" data-name="Path 345" d="M172.93,601.06c.769.435,1.547.836,2.324,1.262V601.9h6.688v3.771c.485.209.945.434,1.421.652V601.9h6.688v7.24a2.761,2.761,0,0,0,.393.142V601.06Z" transform="translate(-41.609 -114.07)" fill="#1078ad" opacity="0.1"/>
    <path id="Path_346" data-name="Path 346" d="M733.964,327.924Zm-51.5,246.755ZM628.732,449.132c.159.535.3,1.07.443,1.6h0C629.05,450.2,628.9,449.667,628.732,449.132ZM733.964,327.924ZM229,202.737V206.3h37.346V202.72ZM682.473,574.679Zm-53.74-125.547c.159.535.3,1.07.443,1.6h0C629.05,450.2,628.9,449.667,628.732,449.132ZM733.964,327.924Zm-51.5,246.755ZM628.732,449.132c.159.535.3,1.07.443,1.6h0C629.05,450.2,628.9,449.667,628.732,449.132Z" transform="translate(-50.803 -48.756)" fill="#1078ad" opacity="0.1"/>
    <ellipse id="Ellipse_31" data-name="Ellipse 31" cx="81.463" cy="13.084" rx="81.463" ry="13.084" transform="translate(653.85 695.22)" fill="#1078ad" opacity="0.1"/>
    <ellipse id="Ellipse_32" data-name="Ellipse 32" cx="81.463" cy="13.084" rx="81.463" ry="13.084" transform="translate(286.447 682.137)" fill="#1078ad" opacity="0.1"/>
    <path id="Path_347" data-name="Path 347" d="M539.611,410.094a.442.442,0,0,0-.125-.217c-1.246-1.229-17.13-23.693-17.13-23.693s-.836-2.508-2.19-5.769a5.733,5.733,0,0,0,.962-1.881,6.476,6.476,0,0,0,.159-.878c0-.092.067-.167.092-.259a6.346,6.346,0,0,0-.084-3.445,5.943,5.943,0,0,1-.343.836A13.978,13.978,0,0,0,519.7,372c-2.107-3.628-5.117-6.688-7.332-10.225a27.665,27.665,0,0,1-3.771-18.359c0,.326,0,.66,0,.986a28.608,28.608,0,0,1,.5-3.762,26.119,26.119,0,0,1,1.4-4.13c1.99-4.556,5.208-8.527,7.165-13.1a24.832,24.832,0,0,0,1.488-4.79,26.837,26.837,0,0,0,.744-8.4,13.385,13.385,0,0,1-.209,2A27.213,27.213,0,0,0,512,294.094c-6.83-6.864-16.637-9.531-26.017-10.935a23.835,23.835,0,0,1-10.952-4.18c-3.6-2.333-8.26-2.893-12.474-2.383a20.574,20.574,0,0,0-12.7,6.279c-4.456,4.9-6.387,11.838-11.587,15.968-3.152,2.508-7.148,3.678-10.818,5.384s-7.14,4.18-8.319,7.842v.134l-.05.134c-1.221,4.331,1.137,8.737,2.366,13.059,1.279,4.473,1.363,9.2,1.43,13.82.092,5.652.175,11.312.083,16.971-.042,2.224-.117,4.473-.284,6.688a35.044,35.044,0,0,0-5.743,2.307c-1.873,1.221-8.879,8.787-8.879,8.787l-13.7,52.352.184.209-.184.711.694-.159c1.94,2.09,7.733,8.043,13.987,11.755l.585,10.266s.7,10.3,10.174,14.555c.217,3.57.895,18.067-2.24,23.81a26.754,26.754,0,0,0-2.96,13.611s1.1,8.711-.15,13.293a21.737,21.737,0,0,0-.159,9.33h0v2.75c0,9.272.109,38.984,0,42.345-.159,3.971,0,62.7,0,62.7s-.777,29.353-3.269,37.3-1.864,34.277-1.864,34.277-1.563,31.359,3.963,37.546c0,.276-.05.56-.059.836v.393c-.067,2.383.393,4.916,2.441,5.693,4.18,1.605,9.706,6.421,10.751,7.8s7.123,4.816,15.049,3.9a113.3,113.3,0,0,1,14.957-.685h0s3.127-.569,2.115-4.456h0c-.652-2.424-3.093-6.153-4.832-8.6.318.084.627.15.92.209l.3.058h.234a3.21,3.21,0,0,0,.385,0h.167a2.855,2.855,0,0,0,.468,0h0c2.1-.2,9.924,3.444,11.32,5.852s6.32,4.239,10.032,4.7c2.207.267,7.775-.184,12.449-.786a45.866,45.866,0,0,0,6.973-1.271c1.1-.418,1.338-1.756,1.02-3.261h0a8.485,8.485,0,0,0-2.893-4.882c-1.354-.961-3.143-3.495-4.464-5.568l-.351-.56c2.333-2.224,6.546-9.5,7.825-11,1.555-1.831-2.508-68.789-2.508-68.789V626.635l6.229-31.769,4.356-16.813,3.737-25.382s6.538-29.646,4.523-32.555h0c0-.058-1.672-30.582-3.428-37.914-.761-3.269-.569-10.626-.117-17.782a3.511,3.511,0,0,0,.836-3.662,7.6,7.6,0,0,0-.485-1.246v-.385a57.578,57.578,0,0,1,11.261-3.829c6.228-1.221,4.673-4.431,4.673-4.431s1.4-2.751,2.333-4.431.159-16.512,0-17.732c-.059-.493-.443-3.219-.886-6.312,2-1.421,4.6-3.185,7.432-4.857C541.266,414.341,540.054,410.972,539.611,410.094ZM458.348,622.053s-4.673,11.922-2.8,14.973-.309,14.38-.309,14.38l-1.563,16.813s-4.356,31.184-2.8,38.516c1.221,5.752,1.672,22.932,1.814,30.1h0a2.088,2.088,0,0,0-.309.15l-.209.109c.719-2.817.418-8.519-3.152-19.99l-.3-47.378s-.552-54.727,3.77-60.847,5.852-16.511,5.852-16.511-.936,14.99-1.547,18.961S458.348,622.053,458.348,622.053Zm-8.7,117.764c-.042.1-.092.2-.125.292l-.234-.3A2.482,2.482,0,0,0,449.645,739.817Z" transform="translate(-77.915 -60.84)" fill="url(#linear-gradient)"/>
    <path id="Path_348" data-name="Path 348" d="M508.269,849.544c-2.416.928-15.517,2.508-19.179,2.065s-8.511-2.3-9.89-4.724-9.113-6.086-11.186-5.852a7.52,7.52,0,0,1-2.508-.351,30.857,30.857,0,0,1-4.18-1.605,7.761,7.761,0,0,1,.092-3.177,5.1,5.1,0,0,1,.184-.619,5.526,5.526,0,0,1,2.809-3.127l.3-.142a8.52,8.52,0,0,1,1.806-.552c6.571-1.263,33.684,1.271,33.684,1.271s.761,1.363,1.806,3.051c1.3,2.09,3.077,4.64,4.414,5.6a8.569,8.569,0,0,1,2.851,4.916C509.59,847.78,509.356,849.135,508.269,849.544Z" transform="translate(-88.877 -151.79)" fill="#fff"/>
    <path id="Path_349" data-name="Path 349" d="M508.272,850c-2.416.928-15.508,2.508-19.17,2.065s-8.511-2.307-9.9-4.723-9.1-6.087-11.178-5.852-6.688-1.956-6.688-1.956-.719-3.344,1.371-5.626l4.18,2.968s11.186,3.47,13.26,6.688,5.852,5.016,11.311,5.342c4.08.268,13.452-1.321,17.841-2.115C509.592,848.24,509.367,849.594,508.272,850Z" transform="translate(-88.879 -152.25)" opacity="0.1"/>
    <path id="Path_350" data-name="Path 350" d="M461.257,853.867a111.321,111.321,0,0,0-14.764.694c-7.85.92-13.845-2.508-14.89-3.921s-6.454-6.187-10.609-7.859c-2.032-.786-2.508-3.344-2.416-5.735v-.393a23.414,23.414,0,0,1,.669-4.489l32.53-.694,2.818,3.821.435.585,1.714,2.333s.778,1.02,1.8,2.508c1.722,2.508,4.13,6.212,4.774,8.661h0C464.342,853.3,461.257,853.867,461.257,853.867Z" transform="translate(-81.886 -151.85)" fill="#fff"/>
    <path id="Path_351" data-name="Path 351" d="M461.257,854.964a111.342,111.342,0,0,0-14.764.694c-7.842.92-13.845-2.508-14.881-3.921s-6.463-6.229-10.618-7.842c-2.032-.786-2.508-3.344-2.416-5.735,2.324.543,7.207,1.931,9.121,4.347,2.508,3.227,7,8.653,13.377,9,5.15.276,17.691-.644,22.289-1.011C464.351,854.4,461.257,854.964,461.257,854.964Z" transform="translate(-81.886 -152.947)" opacity="0.1"/>
    <path id="Path_352" data-name="Path 352" d="M457.381,832.177c-.376,2.792-1.538,3.545-2.374,3.712a1.617,1.617,0,0,1-.619,0,2.06,2.06,0,0,1-.326-.05s-29.211,6.454-35.113,1.229a4.107,4.107,0,0,1-.418-.435,23.418,23.418,0,0,1,.669-4.489l32.53-.694,2.818,3.821a5.526,5.526,0,0,1,2.809-3.127Z" transform="translate(-81.879 -151.846)" opacity="0.1"/>
    <path id="Path_353" data-name="Path 353" d="M502.681,835.735c-.652.719-1.2,1.129-1.538.987-1.538-.619-14.146-2.767-18.15-.92s-17.557.3-17.557.3,0-1.605-.075-4.18a8.513,8.513,0,0,1,1.806-.552c6.571-1.262,33.684,1.271,33.684,1.271S501.644,834.046,502.681,835.735Z" transform="translate(-89.558 -151.776)" opacity="0.1"/>
    <path id="Path_354" data-name="Path 354" d="M513.294,602.009l-3.7,25.532-4.3,16.921-6.153,31.987v33.859s4,67.367,2.458,69.207-7.382,12.315-8.921,11.7-14.146-2.767-18.15-.928-17.557.309-17.557.309-.309-26.143-1.848-33.525,2.767-38.759,2.767-38.759l1.538-16.913s2.157-11.387.309-14.464,2.767-15.048,2.767-15.048-2.148-6.78-1.53-10.776,1.53-19.07,1.53-19.07-1.53,10.467-5.8,16.612-3.729,61.214-3.729,61.214l.3,47.654c7.7,25.231,0,22.765,0,22.765s-29.211,6.463-35.113,1.229-4.214-38.173-4.214-38.173-.61-26.452,1.848-34.445,3.236-37.529,3.236-37.529-.159-59.066,0-63.054c.117-3.344,0-33.282,0-42.638v-2.767l3.528-8.762,41.8-5.234h20s30.1,7.073,33.207,10.125a.69.69,0,0,1,.167.184C519.756,572.18,513.294,602.009,513.294,602.009Z" transform="translate(-81.093 -107.161)" fill="#1078ad"/>
    <path id="Path_355" data-name="Path 355" d="M472.11,770.88s9.2,22.146,13.535,23.685S472.11,770.88,472.11,770.88Z" transform="translate(-90.665 -141.915)" opacity="0.1"/>
    <path id="Path_356" data-name="Path 356" d="M476.18,809.88s31.05,1.538,30.741,4.924S476.18,809.88,476.18,809.88Z" transform="translate(-91.332 -148.31)" opacity="0.1"/>
    <path id="Path_357" data-name="Path 357" d="M426.49,799.29c1.229,1.162,23.685,3.344,21.837,5.468s-19.99,6.254-19.99,6.254Z" transform="translate(-83.185 -146.574)" opacity="0.1"/>
    <path id="Path_358" data-name="Path 358" d="M422.08,753.59c0,.92,4.615,29.529,5.852,30.758s11.378,2.458,11.378,2.458Z" transform="translate(-82.462 -139.08)" opacity="0.1"/>
    <path id="Path_359" data-name="Path 359" d="M455.814,284.572c-4.406,4.924-6.312,11.905-11.445,16.069-3.118,2.508-7.064,3.7-10.693,5.409s-7.223,4.306-8.3,8.168c-1.2,4.347,1.12,8.787,2.341,13.134,1.262,4.5,1.338,9.2,1.413,13.9.084,5.693.176,11.387.075,17.08-.151,8.87-.886,18.15-5.593,25.666,17,5.409,35.072,6.145,52.9,6.839a53.384,53.384,0,0,0,10.275-.259,88.164,88.164,0,0,0,8.753-2.216,67.117,67.117,0,0,1,17.44-2.232,29.28,29.28,0,0,0,7.658-.51c2.475-.669,4.857-2.383,5.526-4.857.594-2.224-.276-4.59-1.413-6.588-2.073-3.645-5.016-6.688-7.24-10.283a28.258,28.258,0,0,1-1.814-25.407c1.973-4.59,5.15-8.586,7.09-13.184a27.806,27.806,0,0,0-5.6-29.5c-6.747-6.906-16.428-9.581-25.691-11a23.336,23.336,0,0,1-10.818-4.18c-3.553-2.341-8.16-2.909-12.323-2.391a20.114,20.114,0,0,0-12.532,6.337Z" transform="translate(-82.712 -61.109)" fill="#3f3d56"/>
    <g id="Group_73" data-name="Group 73" transform="translate(341.232 250.936)" opacity="0.1">
      <path id="Path_360" data-name="Path 360" d="M533.629,340.33A27.815,27.815,0,0,0,531.5,353.1a27.343,27.343,0,0,1,2.132-9.063c1.965-4.59,5.142-8.586,7.081-13.184a26.675,26.675,0,0,0,1.948-12.139,25.991,25.991,0,0,1-1.948,8.444C538.77,331.752,535.593,335.74,533.629,340.33Z" transform="translate(-441.623 -318.71)"/>
      <path id="Path_361" data-name="Path 361" d="M429.711,347.143c.05,3.277.1,6.563.109,9.84q0-6.772-.109-13.527c-.067-4.673-.151-9.405-1.413-13.912-.836-2.859-2.073-5.76-2.508-8.645-.744,4.1,1.371,8.252,2.508,12.34C429.56,337.7,429.644,342.47,429.711,347.143Z" transform="translate(-424.276 -319.069)"/>
      <path id="Path_362" data-name="Path 362" d="M520.981,400.085a28.272,28.272,0,0,1-7.65.51,67.067,67.067,0,0,0-17.431,2.19,88.774,88.774,0,0,1-8.753,2.207,52.808,52.808,0,0,1-10.283.268c-17.222-.677-34.687-1.4-51.182-6.329a28.387,28.387,0,0,1-1.672,3.177c17,5.4,35.072,6.145,52.887,6.839a52.81,52.81,0,0,0,10.283-.268,86.464,86.464,0,0,0,8.72-2.2,67.072,67.072,0,0,1,17.4-2.216,28.868,28.868,0,0,0,7.65-.518c2.475-.677,4.857-2.374,5.526-4.849a6.636,6.636,0,0,0-.084-3.478C525.646,397.761,523.348,399.391,520.981,400.085Z" transform="translate(-424.01 -331.288)"/>
    </g>
    <path id="Path_363" data-name="Path 363" d="M499.158,379.5c-.619,1.388-3.227,13.377-3.846,14.605s-4,20.9-4.306,22-22.264-4.615-22.264-4.615L455.525,400.42,441.94,386.9s-.4-12.2,9.606-16.11a15.255,15.255,0,0,1,2.09-.652c12.139-2.918,10.919-39.829,10.919-39.829l24.914,10.76s-4.615,21.536-4.456,25.691c.042,1.4,1.137,2.266,2.567,2.792a20.292,20.292,0,0,0,6.805.736S499.776,378.123,499.158,379.5Z" transform="translate(-85.717 -69.676)" fill="#fbbebe"/>
    <path id="Path_364" data-name="Path 364" d="M557.275,437.169l3.536.928s2.617,3.98-3.536,7.683a106.612,106.612,0,0,0-11.228,7.851l-18.184,5.534-3.5-10.994,16.921-12.841Z" transform="translate(-99.232 -86.896)" fill="#1078ad"/>
    <path id="Path_365" data-name="Path 365" d="M557.275,437.169l3.536.928s2.617,3.98-3.536,7.683a106.612,106.612,0,0,0-11.228,7.851l-18.184,5.534-3.5-10.994,16.921-12.841Z" transform="translate(-99.232 -86.896)" opacity="0.1"/>
    <path id="Path_366" data-name="Path 366" d="M403.613,449.838l-7.073,6.922s12.758,14.764,22.573,15.684,16.144-11.228,16.144-11.228l-8.494-13.376Z" transform="translate(-78.274 -88.947)" fill="#1078ad"/>
    <path id="Path_367" data-name="Path 367" d="M403.613,449.838l-7.073,6.922s12.758,14.764,22.573,15.684,16.144-11.228,16.144-11.228l-8.494-13.376Z" transform="translate(-78.274 -88.947)" opacity="0.1"/>
    <circle id="Ellipse_33" data-name="Ellipse 33" cx="24.604" cy="24.604" r="24.604" transform="translate(367.918 235.544)" opacity="0.1"/>
    <circle id="Ellipse_34" data-name="Ellipse 34" cx="24.604" cy="24.604" r="24.604" transform="translate(367.918 233.697)" fill="#fbbebe"/>
    <path id="Path_368" data-name="Path 368" d="M518.8,572.026a79.425,79.425,0,0,0-16.462,3.687c-9.2,3.06-81.263.05-82.266,0v-2.767l3.528-8.762,41.8-5.234h20s30.1,7.073,33.207,10.124C518.73,570.914,518.8,572.026,518.8,572.026Z" transform="translate(-82.132 -107.166)" opacity="0.1"/>
    <path id="Path_369" data-name="Path 369" d="M499.158,387.2c-.619,1.388-3.227,13.376-3.846,14.605s-4,20.9-4.306,22-22.264-4.615-22.264-4.615l-13.218-11.077L441.94,394.6s-.4-12.2,9.606-16.11l24.847,28.567,11.186-29.8a20.29,20.29,0,0,0,6.805.736S499.776,385.819,499.158,387.2Z" transform="translate(-85.717 -77.373)" opacity="0.1"/>
    <path id="Path_370" data-name="Path 370" d="M471.6,407.723l-25.432-29.261a10.659,10.659,0,0,0-10.091-.744c-5.693,2.466-12.766,4.464-14.614,5.693s-8.77,8.837-8.77,8.837l20.617,53.933L424.227,481.7s1.388,18.15-2.149,24.763a27.179,27.179,0,0,0-2.926,13.686s1.078,8.77-.15,13.377a22.28,22.28,0,0,0-.159,9.38s73.061,3.077,82.282,0a78.727,78.727,0,0,1,16.461-3.687s-1.672-30.766-3.344-38.148,1.388-35.523,1.388-35.523l-2-30.147,11.989-30.933s-6.5-19.831-13.268-21.829c0,0-12.3-2.926-14.915-4.305s-10.308-2.617-10.308-2.617l-4.038,1.354Z" transform="translate(-80.922 -77.122)" fill="#1078ad"/>
    <rect id="Rectangle_102" data-name="Rectangle 102" width="58.556" height="89.606" rx="2.94" transform="translate(370.192 353.46) rotate(3.89)" opacity="0.1"/>
    <rect id="Rectangle_103" data-name="Rectangle 103" width="58.556" height="89.606" rx="2.94" transform="translate(372.034 351.625) rotate(3.89)" fill="#3f3d56"/>
    <rect id="Rectangle_104" data-name="Rectangle 104" width="51.015" height="77.099" transform="translate(375.34 358.593) rotate(3.89)" fill="#fff"/>
    <rect id="Rectangle_105" data-name="Rectangle 105" width="41.678" height="11.616" transform="translate(380.095 378.776) rotate(4.004)" opacity="0.1"/>
    <rect id="Rectangle_106" data-name="Rectangle 106" width="6.613" height="6.053" transform="translate(413.571 427.287) rotate(3.89)" opacity="0.1"/>
    <rect id="Rectangle_107" data-name="Rectangle 107" width="33.851" height="6.053" transform="translate(379.888 410.864) rotate(3.89)" opacity="0.1"/>
    <rect id="Rectangle_108" data-name="Rectangle 108" width="35.247" height="9.305" transform="translate(384.771 356.786) rotate(3.89)" fill="#3f3d56"/>
    <rect id="Rectangle_109" data-name="Rectangle 109" width="35.247" height="9.305" transform="translate(384.771 356.786) rotate(3.89)" opacity="0.1"/>
    <path id="Path_371" data-name="Path 371" d="M484.416,572.56s-.309,45.531-12.306,71.673c0,0,14.463-34.453,14.463-35.833s7.992-15.843,5.852-20.148S484.416,572.56,484.416,572.56Z" transform="translate(-90.665 -109.397)" opacity="0.1"/>
    <path id="Path_372" data-name="Path 372" d="M481.807,315.085a17.113,17.113,0,0,1,2.784-11.462A14.121,14.121,0,0,0,495.509,318.5a1.848,1.848,0,0,1-.527-2.023c1.714,1.94,3.026,4.239,4.966,5.944s4.849,2.725,7.131,1.513c3.1-1.672,3.135-6.078,2.333-9.506a44.644,44.644,0,0,0-10.275-19.622,13.594,13.594,0,0,0-10.785-5.484c-4.749-.368-9.681.05-13.937,2.182a37.035,37.035,0,0,0-6.688,4.673l-11.7,9.548a11.11,11.11,0,0,0-2.843,2.993,8.193,8.193,0,0,0-.886,3.135A16.9,16.9,0,0,0,460.17,327.8a12.465,12.465,0,0,1,7.466-11.7,3.244,3.244,0,0,1,1.162,2.416l2.466-4.4a4.841,4.841,0,0,1,1.672-1.982c1.522-.836,3.419.151,4.715,1.329s2.558,2.65,4.3,2.834l.067-6.546" transform="translate(-87.403 -62.937)" opacity="0.1"/>
    <path id="Path_373" data-name="Path 373" d="M481.814,313.985a17.121,17.121,0,0,1,2.784-11.47A14.129,14.129,0,0,0,495.524,317.4a1.831,1.831,0,0,1-.527-2.015c1.714,1.94,3.026,4.23,4.966,5.944s4.849,2.726,7.131,1.5c3.1-1.672,3.135-6.078,2.332-9.5a44.644,44.644,0,0,0-10.275-19.622,16.443,16.443,0,0,0-5.744-4.464,16.724,16.724,0,0,0-5.016-1.02c-4.749-.368-9.681.042-13.937,2.174a37.5,37.5,0,0,0-6.688,4.682l-11.7,9.547a10.994,10.994,0,0,0-2.843,2.993,8.152,8.152,0,0,0-.886,3.135,16.888,16.888,0,0,0,7.875,15.935,12.482,12.482,0,0,1,7.466-11.7,3.269,3.269,0,0,1,1.162,2.416l2.458-4.381a4.79,4.79,0,0,1,1.672-1.981c1.521-.836,3.419.151,4.715,1.329s2.558,2.642,4.3,2.834l.067-6.555" transform="translate(-87.41 -62.756)" fill="#3f3d56"/>
    <path id="Path_374" data-name="Path 374" d="M486.983,495.364c-2.149-1.087-37.68,4.456-37.68,4.456s-5.852-1.672-20-4-15.048-16.152-15.048-16.152L412.71,451.99l4.774-4.18,20.449,13.376s.318,6.764,0,7.984a11.26,11.26,0,0,0-.685,2.508.836.836,0,0,0,.685.752c1.388.351,20.3,3.411,20.3,3.411s43.833-3,54.76,11.763a11.1,11.1,0,0,1,1.931,3.645C517.632,501.341,488.931,496.325,486.983,495.364Z" transform="translate(-80.925 -88.942)" fill="#fbbebe"/>
    <path id="Path_375" data-name="Path 375" d="M519.633,496c-1.672.744-2.709,1.279-2.709,1.279s-15.684-.46-24.5-3.654S472.907,491,472.907,491s-36.718-6.32-31.025-14.572a.836.836,0,0,0,.686.752c1.388.351,20.3,3.411,20.3,3.411s43.833-3,54.76,11.763A11.1,11.1,0,0,1,519.633,496Z" transform="translate(-85.61 -93.635)" opacity="0.1"/>
    <path id="Path_376" data-name="Path 376" d="M534.888,441.58s2.157,15.224,2.307,16.462.928,16.144,0,17.841-2.307,4.456-2.307,4.456,1.538,3.227-4.615,4.464-13.376,4.916-13.376,4.916-15.692-.46-24.454-3.687-19.53-2.617-19.53-2.617-46.609-8-26.611-17.766,34.144,3.461,34.144,3.461l22.3-1.38s8.31-5.083,10.618-4.615a8.536,8.536,0,0,0,4.765-.769l.159-16.152Z" transform="translate(-85.616 -87.921)" fill="#fbbebe"/>
    <path id="Path_377" data-name="Path 377" d="M414.471,396.834l-4.464-.234L396.48,449.27s14.605-3.7,20.9,0,17.841,4.456,17.841,4.456l-4.306-41.986Z" transform="translate(-78.264 -80.546)" opacity="0.1"/>
    <path id="Path_378" data-name="Path 378" d="M414.471,395.724l-4.464-.234L396.48,448.16s14.605-3.7,20.9,0,17.841,4.456,17.841,4.456l-4.306-41.986Z" transform="translate(-78.264 -80.364)" fill="#1078ad"/>
    <path id="Path_379" data-name="Path 379" d="M538.436,409.57l6.145,1.388s15.692,22.573,16.921,23.835-5.852,5.852-8.77,5.852-17.223,1.672-21.378,5.534-2.424-15.575-2.424-16.018,5.158-12.708,5.158-12.708Z" transform="translate(-99.923 -82.672)" opacity="0.1"/>
    <path id="Path_380" data-name="Path 380" d="M538.436,408.47l6.145,1.379s15.692,22.615,16.921,23.844-5.852,5.852-8.77,5.852-17.223,1.672-21.378,5.535-2.424-15.575-2.424-16.018,5.192-12.749,5.192-12.749Z" transform="translate(-99.923 -82.492)" fill="#1078ad"/>
    <g id="Group_74" data-name="Group 74" transform="translate(364.847 237.91)" opacity="0.1">
      <path id="Path_381" data-name="Path 381" d="M484.555,305.053a12.321,12.321,0,0,1,.042-1.923,17.111,17.111,0,0,0-2.575,6.312v2.333c0,1.354,0,2.717-.042,4.072h-.117v.627a3.337,3.337,0,0,0-.042-.644c-1.672-.268-2.868-1.672-4.113-2.792s-3.194-2.19-4.715-1.329a4.792,4.792,0,0,0-1.672,1.981l-2.483,4.381a3.235,3.235,0,0,0-1.162-2.408,12.465,12.465,0,0,0-7.466,11.7,16.988,16.988,0,0,1-7.934-13.318,16.9,16.9,0,0,0,7.934,15.157,12.482,12.482,0,0,1,7.466-11.7,3.269,3.269,0,0,1,1.162,2.416l2.458-4.381a4.79,4.79,0,0,1,1.672-1.981c1.522-.836,3.419.15,4.715,1.329s2.558,2.642,4.3,2.834q0-3.21.067-6.4A17.027,17.027,0,0,1,484.555,305.053Z" transform="translate(-452.256 -303.13)"/>
      <path id="Path_382" data-name="Path 382" d="M487.506,314.72c.042-.569.109-1.137.192-1.672l.092-2.308A16.926,16.926,0,0,0,487.506,314.72Z" transform="translate(-458.033 -304.378)"/>
      <path id="Path_383" data-name="Path 383" d="M515.456,325.969c-2.282,1.221-5.192.2-7.131-1.5s-3.252-4-4.966-5.944a1.848,1.848,0,0,0,.527,2.023,1.968,1.968,0,0,1-.485-.125c1.672,1.923,3,4.18,4.924,5.852s4.849,2.725,7.131,1.5,2.934-4.08,2.734-6.864C518.039,323.1,517.253,325,515.456,325.969Z" transform="translate(-460.617 -305.654)"/>
      <path id="Path_384" data-name="Path 384" d="M501.321,318.333A14.212,14.212,0,0,1,490.9,305.91a14.121,14.121,0,0,0,10.952,14.4A1.84,1.84,0,0,1,501.321,318.333Z" transform="translate(-458.588 -303.586)"/>
    </g>
    <path id="Path_385" data-name="Path 385" d="M948.667,448.128s-3.294-.46-3.294-5.25-2.358-13.761-2.358-13.761h0s-2.04-15.609-4.857-18.083-6.437-17-6.437-17-.619-7.884-1.881-9.581-2.968-5.852-5.485-11.78-12.983-9.991-12.983-9.991-18.97-11-24.345-14.589h0a8.307,8.307,0,0,1-1.371-1.037c-.936-1.221-5.016-1.246-5.016-1.246a82.583,82.583,0,0,1-.97-8.594v-.9a28.925,28.925,0,0,0,12.716-15.734c.1-.318.184-.644.276-.97a2.717,2.717,0,0,0,1.672-1.471c.477-1.078.493-2.333,1.1-3.344.7-1.187,2.04-1.823,3.093-2.709,2.659-2.266,3.344-6.07,3.219-9.522-.083-2.809-.535-5.635-.36-8.419a3.3,3.3,0,0,1,.05-.7c.05-.41.109-.836.184-1.237.41-2.073,1.3-4.03,1.806-6.086a7.829,7.829,0,0,0-.619-6.145c-1.714-2.6-5.284-3.118-8.419-3.344-3.553-.3-6.688.084-9-2.868a31.5,31.5,0,0,0-3.578-4.314c-.468-.435-5.016-3.219-5.016-3.394a20.323,20.323,0,0,0-14.212-1.1c-2.366.686-4.581,1.806-6.981,2.366-5.15,1.221-11.086-.1-15.467,2.851-2.441,1.672-3.9,4.339-5.275,6.922q-1.672,3.194-3.394,6.4c-1.856,3.5-3.729,7.065-4.506,10.944a18.53,18.53,0,0,0-.31,2.567h0v1.329a4.6,4.6,0,0,0,.05.836,4.809,4.809,0,0,0,.058.518c.058.176.075.568.125.836s.151.744.251,1.1a1.7,1.7,0,0,0,.151.468c.05.159.184.56.292.836s.117.293.184.435a7.877,7.877,0,0,0,.427.836c.067.109.117.217.184.326a9.47,9.47,0,0,0,.769,1.12c1.781,2.232,4.423,3.653,6.37,5.743v.936a28.618,28.618,0,0,0,13.109,23.325c0,.318.042.644.059.97a47.752,47.752,0,0,1-.092,7.441,3.528,3.528,0,0,0-2.776-1.237,3.977,3.977,0,0,0-1.07.092l-.075-.059h0v.075c-1.839.452-4.1,2.366-6.27,7.809,0,0-6.588,7.424-11.6,7.115s-17.716,7.733-17.716,7.733-12.39,8.034-15.049,16.227a113.452,113.452,0,0,1-5.342,13.611L773.317,426.96h0L770.5,452.041s1.563,11.128,1.254,12.833,6.429,17.005,6.429,17.005,22.264,39.11,31.36,41.116l.652-.451a5.683,5.683,0,0,0,1.229.451l1.873-1.312a19.539,19.539,0,0,1-.151,4.406c-1.245,3.871.477,29.069,2.667,34.01s1.413,69.734,1.413,69.734l-.309,5.71a2.426,2.426,0,0,0,.075.5l-.075,1.354.226.117a16.149,16.149,0,0,1-.226,5.451c-.786,2.508-1.1,9.589-1.1,9.589s-6.27,40.029-3.294,48.072,5.493,16.854,5.493,16.854,3.135,10.032.15,11.7-11.437,4.64-9.714,8.812c1.588,3.863,7.616,14.213,8.511,15.726l-.075.836-1.229,13.318a16.725,16.725,0,0,0,1.413,5.083c1.346,2.909,3.954,5.911,8.937,5.585.836-.059,1.8-.151,2.742-.276,9.1-1.229,20.307-5.292,20.307-5.292a8,8,0,0,1-1.58-1.313h0a4.59,4.59,0,0,1-1.4-3.344c.134-2.433-4.406-13.979-5.543-16.829l-.259-.636s10.35-10.826,8.628-20.407c0,0-11.454-6.688-7.683-10.367s10.509-14.212,10.509-14.212.31-39.419,0-45.3a48.842,48.842,0,0,1,.577-12.24c.126-.6.276-1.2.435-1.789a106.806,106.806,0,0,0,15.767,1.2q2.893,0,5.852-.117,0,.836.075,1.806c.435,9.765,1.246,26.9,1.906,33.257.937,9.113,6.111,33.7,6.111,33.7s-9.874,6.329,1.722,21.954c0,0,0,5.652-.769,6.479h0a70.768,70.768,0,0,0-1.982,8.168c-.485,2.935-.685,5.919.1,7.457,1.881,3.7,13.168,3.394,13.168,3.394h0a1.769,1.769,0,0,1,.276-.042,16.11,16.11,0,0,1,11.947,3.595c4.289,3.445,20.558,1.94,29.378.836,3.453-.443,5.76-.836,5.76-.836a3.386,3.386,0,0,0,.117-1.2h0c-.092-2.165-1.789-6.914-13.293-11.153,0,0-10.818-7.274-10.668-13.611h-1.488c.786-.025,1.338-.025,1.338-.025s-4.239-15.458-2.508-16.721-3.453-18.393-3.453-18.393-2.968-28.76-3.135-30.766a17.679,17.679,0,0,1,.786-5.1l-.786-15.776s-.151-5.242,0-6.947a32.669,32.669,0,0,0-.351-4.423c-.075-.585-.15-1.2-.234-1.8,4.055-1.028,6.688-1.973,6.688-1.973l-.468-54.886c3.445-6.688,4.08-21.369,4.063-31.769,0-6.688-.3-11.638-.3-11.638l4.707-7.683s1.087-9.2-.635-11.211a1.93,1.93,0,0,1,.209-2.633,8.769,8.769,0,0,1,1.045-.736,1.312,1.312,0,0,1-.108-.184,8.32,8.32,0,0,1,1.045-.744s-1.672-2.592-.176-3.687c1.4.953,2.658,1.714,3.612,2.257-.067.61-.134.961-.134.961l.4-.836c.92.518,1.48.836,1.48.836s7.374-14.689,7.215-16.846,5.016-11.286,5.016-11.286.627-4.8,3.453-6.805,2.191-16.545,2.191-16.545.786-7.574,2.667-10.659S948.667,448.128,948.667,448.128Zm-141.089-6.446.142,3.5c-.836-1.346-1.438-2.308-1.438-2.308Z" transform="translate(-139.591 -58.829)" fill="url(#linear-gradient-2)"/>
    <path id="Path_386" data-name="Path 386" d="M957.755,555.335l-1.806,7.691s-14.464-7.4-17.063-16.762,4.356-12.933,4.356-12.933l13.485,5.7Z" transform="translate(-167.105 -102.965)" fill="#fff"/>
    <path id="Path_387" data-name="Path 387" d="M957.755,555.335l-1.806,7.691s-14.464-7.4-17.063-16.762,4.356-12.933,4.356-12.933l13.485,5.7Z" transform="translate(-167.105 -102.965)" opacity="0.1"/>
    <path id="Path_388" data-name="Path 388" d="M858.061,866.795s-13.376,4.916-22.573,5.535c-4.882.326-7.449-2.667-8.77-5.551a16.968,16.968,0,0,1-1.388-5.016l1.212-13.251.635-7.048,19.538-5.083,2.767,8.469.259.635c1.1,2.834,5.568,14.321,5.434,16.721a4.588,4.588,0,0,0,1.363,3.344A7.762,7.762,0,0,0,858.061,866.795Z" transform="translate(-148.581 -152.655)" fill="#fff"/>
    <path id="Path_389" data-name="Path 389" d="M961.95,859.876a3.342,3.342,0,0,1-.117,1.2s-28.609,4.765-34.461,0a15.492,15.492,0,0,0-12.005-3.536s-11.069.3-12.917-3.344c-.769-1.53-.568-4.5-.092-7.416a71.1,71.1,0,0,1,1.94-8.126l.443-.351,2.634-2.115,30.833-.911h.234c-.15,6.3,10.459,13.535,10.459,13.535C960.194,853,961.858,857.719,961.95,859.876Z" transform="translate(-161.142 -152.475)" fill="#fff"/>
    <path id="Path_390" data-name="Path 390" d="M961.957,862.131a3.442,3.442,0,0,1-.125,1.2s-28.609,4.766-34.453,0a15.493,15.493,0,0,0-12.014-3.536s-11.078.3-12.925-3.344c-.761-1.53-.568-4.5-.092-7.424,4.264.427,10.994,1.488,13.636,4.03,4,3.846,10.768,7.691,14.915,8C934.176,861.261,953.664,861.88,961.957,862.131Z" transform="translate(-161.141 -154.729)" opacity="0.1"/>
    <path id="Path_391" data-name="Path 391" d="M858.333,872.509s-13.376,4.916-22.573,5.534c-4.883.326-7.449-2.667-8.77-5.551,3.411,1.146,8.135,2.341,10.618,1.246,2.943-1.312,13.376-2.149,19.229-2.508a7.609,7.609,0,0,0,1.5,1.279Z" transform="translate(-148.853 -158.369)" opacity="0.1"/>
    <path id="Path_392" data-name="Path 392" d="M883.858,389.03c-11.036-4.289-25.231-18.46-21.687-25.081a14.99,14.99,0,0,0,1.379-5.317,48.494,48.494,0,0,0,.1-7.524,103.29,103.29,0,0,0-1.48-12.248s34.453.777,32.446,5.852c-.585,1.5-.685,4.08-.518,6.964s.577,6.17,1.012,8.937c.594,3.787,1.2,6.688,1.2,6.688s-2.115,2.951-3.344,3.11S899.692,395.175,883.858,389.03Z" transform="translate(-154.531 -71.078)" fill="#cf6f80"/>
    <path id="Path_393" data-name="Path 393" d="M849.94,845.435l-.259.284c-10.3-12.457-22.757,3.076-22.757,3.076l-.184-.334.635-7.048,19.538-5.083,2.767,8.469Z" transform="translate(-148.812 -152.647)" opacity="0.1"/>
    <path id="Path_394" data-name="Path 394" d="M938.925,836.152s-7.524-.151-11.537,3.394-23.409.761-22.573,0a2.888,2.888,0,0,0,.435-1.279l2.634-2.115,30.833-.912C938.833,835.825,938.925,836.152,938.925,836.152Z" transform="translate(-161.61 -152.468)" opacity="0.1"/>
    <path id="Path_395" data-name="Path 395" d="M861.086,716.082a23.469,23.469,0,0,0-1.271,4.289,49.116,49.116,0,0,0-.577,12.173c.31,5.852,0,45.071,0,45.071s-6.613,10.459-10.308,14.146,7.524,10.309,7.524,10.309c1.672,9.539-8.461,20.307-8.461,20.307-10.3-12.457-22.757,3.068-22.757,3.068s-6.772-11.7-8.461-15.885,6.613-7.065,9.531-8.77-.151-11.7-.151-11.7-2.458-8.77-5.384-16.771S824,724.492,824,724.492s.318-7.081,1.079-9.547a16.175,16.175,0,0,0,.226-5.417c-.05-.611-.109-1.112-.15-1.463s-.075-.5-.075-.5l.117-.2,4.18-7.792S863.092,711.174,861.086,716.082Z" transform="translate(-147.142 -130.223)" fill="#1078ad"/>
    <path id="Path_396" data-name="Path 396" d="M937.153,814.6s-7.524-.159-11.537,3.344-23.409.769-22.573,0,.761-6.454.761-6.454c-11.378-15.542-1.672-21.845-1.672-21.845s-5.075-24.454-5.994-33.525c-.644-6.329-1.438-23.409-1.864-33.082-.184-4.18-.293-7.065-.293-7.065l9.213-1.831,1.2-.234,22.422-4.506s.619,4.18,1.037,7.6a33.35,33.35,0,0,1,.343,4.406c-.142,1.672,0,6.914,0,6.914L928.96,744a18.083,18.083,0,0,0-.769,5.074c.159,2.007,3.077,30.608,3.077,30.608s5.075,17.072,3.344,18.3S937.153,814.6,937.153,814.6Z" transform="translate(-159.838 -131.834)" fill="#1078ad"/>
    <path id="Path_397" data-name="Path 397" d="M894.727,344.742c-.585,1.5-.686,4.08-.518,6.964a28.634,28.634,0,0,1-30.448-.568,103.24,103.24,0,0,0-1.48-12.248S896.733,339.667,894.727,344.742Z" transform="translate(-154.64 -71.083)" opacity="0.1"/>
    <path id="Path_398" data-name="Path 398" d="M905.781,318.2a28.6,28.6,0,1,1-57.2.686V318.2a28.609,28.609,0,0,1,57.218,0Z" transform="translate(-152.394 -62.999)" fill="#cf6f80"/>
    <path id="Path_399" data-name="Path 399" d="M883.858,392.908c-11.036-4.289-25.231-18.46-21.687-25.081a14.991,14.991,0,0,0,1.379-5.317l15.107,12.423L888,382.6l7.106-18.083c.594,3.787,1.2,6.688,1.2,6.688s-2.115,2.951-3.344,3.11S899.692,399.053,883.858,392.908Z" transform="translate(-154.531 -74.956)" opacity="0.1"/>
    <path id="Path_400" data-name="Path 400" d="M904.942,429,892.326,640.931l-16.453,1.079L833.26,519.121l6.989-145.9,1.48-30.825,18.945,15.559,9.347,7.666,7.315-18.619,13.6,11.855Z" transform="translate(-136.547 -56.142)" fill="#1078ad"/>
    <path id="Path_401" data-name="Path 401" d="M862.755,716.095a23.447,23.447,0,0,0-1.271,4.289,121.238,121.238,0,0,1-34.528-10.776l-.226-.117.075-1.346v-.7l4.18-7.792S864.761,711.187,862.755,716.095Z" transform="translate(-148.811 -130.236)" opacity="0.1"/>
    <path id="Path_402" data-name="Path 402" d="M903.459,722.945a84.6,84.6,0,0,1-9.247,1.062c-.184-4.18-.293-7.064-.293-7.064l9.263-1.873Z" transform="translate(-159.828 -132.764)" opacity="0.1"/>
    <path id="Path_403" data-name="Path 403" d="M929.929,717c-5.944,1.547-15.132,3.286-23.342,2.2l-.117-5.292,22.423-4.506S929.486,713.547,929.929,717Z" transform="translate(-161.885 -131.834)" opacity="0.1"/>
    <path id="Path_404" data-name="Path 404" d="M885.165,663.024c-34.278,5.852-65.67-10.927-65.67-10.927l.3-5.685s.777-64.45-1.379-69.391-3.837-29.963-2.617-33.784-4.456-61.507-4.456-61.507l-.92-23.409L776.74,444.635l15.049-31.376a113.389,113.389,0,0,0,5.233-13.544c2.617-8.151,14.765-16.152,14.765-16.152s12.457-7.992,17.381-7.691,11.379-7.073,11.379-7.073c4.765-12.148,9.079-6.688,9.079-6.688a10.752,10.752,0,0,1-.234,1.8c-1.672,13.335,27.037,55.471,27.447,56.223h0l2.767,66.6,2.767,84.28Z" transform="translate(-140.614 -74.69)" opacity="0.1"/>
    <path id="Path_405" data-name="Path 405" d="M884.06,663.024c-34.277,5.852-65.679-10.927-65.679-10.927l.309-5.685s.769-64.45-1.388-69.391-3.837-29.989-2.608-33.843-4.481-61.482-4.481-61.482l-.928-23.409L775.61,444.6l15.048-31.376a115.143,115.143,0,0,0,5.234-13.535c2.617-8.126,14.806-16.135,14.806-16.135s12.457-7.992,17.373-7.692,11.4-7.065,11.4-7.065c4.774-12.148,10.032-6.688,10.032-6.688,0,.585-.5.836-.234,1.8,3.679,12.933,26.118,55.471,26.527,56.223h0l2.767,66.6,2.709,84.322Z" transform="translate(-140.429 -74.69)" fill="#fff"/>
    <path id="Path_406" data-name="Path 406" d="M888.087,422.386c-3.687-1.538-23.217-23.835-23.217-23.835v-5.075c-.71-1.672-4.941-.652-8.36.518l1.472-30.825,1.672,1.388C863.307,377.483,887.686,421.642,888.087,422.386Z" transform="translate(-153.694 -75.064)" opacity="0.1"/>
    <path id="Path_407" data-name="Path 407" d="M889.2,420.191c-3.7-1.547-23.225-23.835-23.225-23.835v-5.083c-.711-1.672-4.933-.652-8.36.518L859.056,361l1.672,1.379C864.415,375.288,888.786,419.439,889.2,420.191Z" transform="translate(-153.874 -74.708)" fill="#fff"/>
    <path id="Path_408" data-name="Path 408" d="M827.511,564.318c.46,0,23.835-2.458,23.835-2.458s14.154,27.84,13.226,34.6-2.608,12.766-8.3,11.7S825.63,609,825.63,609Z" transform="translate(-148.63 -107.643)" opacity="0.1"/>
    <path id="Path_409" data-name="Path 409" d="M826.4,562.108c.468,0,23.844-2.458,23.844-2.458s14.146,27.882,13.226,34.57-2.617,12.766-8.3,11.7-30.649.836-30.649.836Z" transform="translate(-148.448 -107.28)" fill="#fff"/>
    <path id="Path_410" data-name="Path 410" d="M845.333,547s21.453,11.537,21.912,15.049-10.918-1.538-13.376-2.157a31.858,31.858,0,0,0-4.924-.769l-16.395.443Z" transform="translate(-149.765 -105.206)" fill="#cf6f80"/>
    <circle id="Ellipse_35" data-name="Ellipse 35" cx="2.257" cy="2.257" r="2.257" transform="translate(726.142 344.246)" opacity="0.1"/>
    <circle id="Ellipse_36" data-name="Ellipse 36" cx="2.257" cy="2.257" r="2.257" transform="translate(726.142 343.326)" fill="#3f3d56"/>
    <circle id="Ellipse_37" data-name="Ellipse 37" cx="2.257" cy="2.257" r="2.257" transform="translate(730.297 441.961)" opacity="0.1"/>
    <circle id="Ellipse_38" data-name="Ellipse 38" cx="2.257" cy="2.257" r="2.257" transform="translate(730.297 441.033)" fill="#3f3d56"/>
    <circle id="Ellipse_39" data-name="Ellipse 39" cx="2.257" cy="2.257" r="2.257" transform="translate(728.399 393.103)" opacity="0.1"/>
    <circle id="Ellipse_40" data-name="Ellipse 40" cx="2.257" cy="2.257" r="2.257" transform="translate(728.399 392.184)" fill="#3f3d56"/>
    <path id="Path_411" data-name="Path 411" d="M943.786,528.778s1.539,2.307,0,3.344.151,3.7.151,3.7-3.837,2.241-2.149,4.272.619,11.153.619,11.153l-4.615,7.683s.276,4.924.292,11.579c0,10.383-.61,24.981-3.988,31.635l.451,54.6s-16.16,5.911-29.687,4.1l-2.006-87.616s2.926-49.685,4-59.216a99.171,99.171,0,0,0,.769-14.923s-.46-14.915-2.006-21.829c0,0-1.672-30-1.839-38.3-.075-3.971.134-15.559.368-26.577.259-12.047.552-23.409.552-23.409l-3.052-24.153s3.052-.3,3.971.92a8.785,8.785,0,0,0,1.338,1.028h0c5.275,3.562,23.885,14.514,23.885,14.514s10.3,4.1,12.766,9.966,4.18,10.032,5.376,11.7,1.848,9.531,1.848,9.531,3.545,14.463,6.312,16.913,4.757,18,4.757,18l-24.454,19.229s-2.149,31.987-2.608,33.224S943.786,528.778,943.786,528.778Z" transform="translate(-161.095 -75.33)" fill="#fff"/>
    <path id="Path_412" data-name="Path 412" d="M944.709,528.721s1.53,2.308,0,3.344.142,3.7.142,3.7-3.837,2.241-2.149,4.272.619,11.153.619,11.153l-4.6,7.683s.276,4.924.3,11.579c0,10.384-.61,24.981-3.988,31.636l.46,54.6s-16.161,5.911-29.687,4.105l-2-87.617s2.918-49.685,4-59.216a98.306,98.306,0,0,0,.761-14.923s-.46-14.915-2-21.829c0,0-1.672-30-1.847-38.3-.075-3.971.133-15.558.368-26.577.259-12.047.552-23.409.552-23.409l-4.03-24.479s4.03,0,4.958,1.246a7.939,7.939,0,0,0,1.338,1.028h0c5.267,3.561,23.877,14.514,23.877,14.514s10.275,4.1,12.783,9.965,4.18,10.032,5.376,11.7,1.848,9.531,1.848,9.531,3.545,14.464,6.312,16.913,4.765,18,4.765,18L938.422,466.57s-2.149,31.987-2.617,33.224S944.709,528.721,944.709,528.721Z" transform="translate(-161.09 -75.272)" fill="#fff"/>
    <path id="Path_413" data-name="Path 413" d="M915.6,396.378l2.216,6.437-11.629,11.7c.259-12.047.552-23.409.552-23.409l-4.03-24.471s4.03,0,4.958,1.246a7.943,7.943,0,0,0,1.338,1.028h0l9.882,28.5Z" transform="translate(-161.269 -75.633)" opacity="0.1"/>
    <path id="Path_414" data-name="Path 414" d="M914.472,394.164l2.215,6.429-11.621,11.7c.251-12.047.552-23.409.552-23.409L901.58,364.41s4.038,0,4.958,1.246a8.353,8.353,0,0,0,1.338,1.028h0l9.94,28.525Z" transform="translate(-161.084 -75.267)" fill="#fff"/>
    <path id="Path_415" data-name="Path 415" d="M905.781,318.2a28.513,28.513,0,0,1-1.4,8.87,1.187,1.187,0,0,1-.9-.217c-.226-7.524-3.921-14.6-8.477-20.608a21.84,21.84,0,0,0-4.6-4.765,9,9,0,0,0-6.237-1.764c-2.508.343-4.724,2.048-7.257,2.266-3.344.276-6.337-2.04-9.656-2.149a9.464,9.464,0,0,0-7.1,3.294,19.361,19.361,0,0,0-3.8,7.048,41.283,41.283,0,0,0-2.124,12.173c-.042,2.341-.267,5.275-2.441,6.128a12.457,12.457,0,0,0-3.152-9.531l-.05-.058V318.2a28.609,28.609,0,0,1,57.218,0Z" transform="translate(-152.394 -62.999)" opacity="0.1"/>
    <path id="Path_416" data-name="Path 416" d="M887.354,269.113a19.7,19.7,0,0,0-13.895-1.087c-2.316.686-4.5,1.8-6.847,2.358-5.016,1.212-10.868-.1-15.174,2.834-2.391,1.672-3.829,4.314-5.167,6.889l-3.344,6.362c-1.823,3.486-3.662,7.031-4.423,10.868s-.3,8.135,2.132,11.228c1.764,2.241,4.389,3.654,6.312,5.769a12.539,12.539,0,0,1,3.144,9.556c2.173-.836,2.391-3.787,2.441-6.128a41.346,41.346,0,0,1,2.124-12.173,19.366,19.366,0,0,1,3.8-7.048,9.472,9.472,0,0,1,7.1-3.3c3.344.117,6.345,2.433,9.656,2.149,2.508-.209,4.732-1.914,7.257-2.257a8.962,8.962,0,0,1,6.237,1.764,21.415,21.415,0,0,1,4.59,4.765c4.565,6.02,8.268,13.059,8.486,20.608.945.686,2.307-.217,2.776-1.288s.485-2.324,1.079-3.344c.686-1.179,2-1.814,3.026-2.7,2.608-2.249,3.26-6.036,3.16-9.472s-.769-6.922-.117-10.3c.393-2.065,1.279-4.013,1.764-6.061a7.924,7.924,0,0,0-.6-6.111c-1.672-2.583-5.192-3.1-8.26-3.344-3.486-.3-6.6.084-8.828-2.851a32.7,32.7,0,0,0-3.512-4.3C891.81,272.055,887.354,269.3,887.354,269.113Z" transform="translate(-150.686 -59.335)" fill="#512e4e"/>
    <path id="Path_417" data-name="Path 417" d="M786.026,477.194,777.3,461.05l-2.767,24.914s1.538,11.069,1.229,12.766,6.3,16.913,6.3,16.913,21.846,38.917,30.766,40.916l30.1-21.536-7.993-10.149s-2.767-1.078-3.461,0c0,0-14.848-25.533-16.378-27.372s-1.237-5.543-1.237-5.543-2.307-2.458-1.538-4.765-4.414-10.3-4.414-10.3l4.765-4.456Z" transform="translate(-140.252 -91.113)" opacity="0.1"/>
    <path id="Path_418" data-name="Path 418" d="M777.395,458.84l-2.307,1.848L772.32,485.6s1.538,11.069,1.229,12.766,6.312,16.913,6.312,16.913S801.7,554.2,810.619,556.2l30.148-21.536-8-10.149s-2.767-1.079-3.461,0c0,0-14.839-25.533-16.378-27.372S811.7,491.6,811.7,491.6s-2.308-2.458-1.539-4.766-4.464-10.3-4.464-10.3l4.765-4.456Z" transform="translate(-139.889 -90.751)" fill="#fff"/>
    <path id="Path_419" data-name="Path 419" d="M946.238,572.7c1.672,2.032.619,11.161.619,11.161l-4.615,7.633s.276,4.932.293,11.587l-7.758,2.424a4.615,4.615,0,0,1-5.986-4.548l1.346-43.139,18.1,6.914c-1.538,1.07.151,3.7.151,3.7S944.549,570.67,946.238,572.7Z" transform="translate(-165.545 -106.98)" opacity="0.1"/>
    <path id="Path_420" data-name="Path 420" d="M947.341,571.6c1.672,2.023.618,11.153.618,11.153l-4.6,7.641s.276,4.924.3,11.579l-7.9,2.466A4.507,4.507,0,0,1,929.909,600l1.346-43.29,18.092,6.931c-1.547,1.07.142,3.7.142,3.7S945.652,569.568,947.341,571.6Z" transform="translate(-165.728 -106.798)" fill="#fff"/>
    <path id="Path_421" data-name="Path 421" d="M955.1,548.58s-1.229,7.85-4.306,8.31-4.456,12.7-7.524,12.273-1.037-11.387-.928-13.51-3.344-10.919-.769-12.917,10.768,0,10.768,0Z" transform="translate(-167.484 -104.361)" fill="#cf6f80"/>
    <path id="Path_422" data-name="Path 422" d="M960.972,475.3l5.794-11.7s2.316,8.92,2.316,13.686,3.227,5.234,3.227,5.234,3.536,4.18,1.672,7.232-2.609,10.609-2.609,10.609.61,14.455-2.157,16.453-3.386,6.772-3.386,6.772-5.075,9.071-4.916,11.228-7.073,16.763-7.073,16.763,3.536-18.15-17.072-25.992c0,0-.159-6.153,1.379-7.842s3.938-2.508,2.433-11-.435-18.736-.435-20.784,4.615-14.814,4.615-14.814Z" transform="translate(-166.853 -91.531)" opacity="0.1"/>
    <path id="Path_423" data-name="Path 423" d="M963.916,461.6l5.066,1.672s2.316,8.921,2.316,13.686,3.227,5.234,3.227,5.234,3.537,4.18,1.672,7.232-2.617,10.609-2.617,10.609.619,14.455-2.149,16.453-3.344,6.772-3.344,6.772-5.075,9.071-4.916,11.228-7.081,16.762-7.081,16.762,3.537-18.15-17.072-25.992c0,0-.15-6.153,1.388-7.842s3.938-2.508,2.433-11-.435-18.736-.435-20.784,4.615-14.815,4.615-14.815Z" transform="translate(-167.222 -91.203)" fill="#fff"/>
    <path id="Path_424" data-name="Path 424" d="M834.92,823.935S843,818.86,848.3,822.547,834.92,823.935,834.92,823.935Z" transform="translate(-150.154 -150.167)" opacity="0.1"/>
    <path id="Path_425" data-name="Path 425" d="M910,805.691a16.348,16.348,0,0,1,13.151,5.543C929.153,817.7,910,805.691,910,805.691Z" transform="translate(-162.465 -147.616)" opacity="0.1"/>
    <g id="Group_75" data-name="Group 75" transform="translate(687.471 226.315)" opacity="0.1">
      <path id="Path_426" data-name="Path 426" d="M911.006,318.2c-1.028.895-2.349,1.522-3.035,2.7-.585,1.012-.6,2.266-1.07,3.344s-1.831,1.973-2.784,1.288c-.217-7.524-3.921-14.589-8.477-20.608a21.374,21.374,0,0,0-4.59-4.757,8.987,8.987,0,0,0-6.245-1.773c-2.508.343-4.715,2.048-7.248,2.266-3.344.276-6.345-2.04-9.664-2.149a9.431,9.431,0,0,0-7.09,3.294,19.365,19.365,0,0,0-3.8,7.048,41.334,41.334,0,0,0-2.124,12.173c-.05,2.332-.267,5.242-2.424,6.111a11.593,11.593,0,0,1,0,1.864c2.182-.836,2.4-3.787,2.449-6.128a41.34,41.34,0,0,1,2.124-12.173,19.358,19.358,0,0,1,3.8-7.048,9.463,9.463,0,0,1,7.089-3.3c3.344.117,6.354,2.433,9.664,2.149,2.508-.209,4.732-1.915,7.249-2.257A8.987,8.987,0,0,1,891.075,302a21.427,21.427,0,0,1,4.59,4.765c4.556,6.02,8.26,13.059,8.477,20.608.953.685,2.316-.217,2.784-1.288s.485-2.324,1.07-3.344c.686-1.179,2.007-1.814,3.035-2.7,2.608-2.249,3.261-6.036,3.16-9.472v-.318C914.024,313.249,913.23,316.284,911.006,318.2Z" transform="translate(-840.499 -290.751)"/>
      <path id="Path_427" data-name="Path 427" d="M846.938,318.916c-1.914-2.115-4.54-3.536-6.3-5.777A12.132,12.132,0,0,1,838.2,306.3a12.884,12.884,0,0,0,2.433,8.686c1.764,2.241,4.389,3.653,6.3,5.769a12.541,12.541,0,0,1,3.161,7.457A12.541,12.541,0,0,0,846.938,318.916Z" transform="translate(-838.155 -292.054)"/>
      <path id="Path_428" data-name="Path 428" d="M927.837,290.874c-.493,2.048-1.371,4-1.772,6.061a19.348,19.348,0,0,0-.259,4.23,16.215,16.215,0,0,1,.259-2.383c.4-2.065,1.279-4.013,1.772-6.061a10.5,10.5,0,0,0,.276-3.461,11.666,11.666,0,0,1-.276,1.614Z" transform="translate(-852.523 -289.26)"/>
    </g>
    <ellipse id="Ellipse_41" data-name="Ellipse 41" cx="81.463" cy="13.084" rx="81.463" ry="13.084" transform="translate(29.584 675.164)" fill="#1078ad" opacity="0.1"/>
    <rect id="Rectangle_110" data-name="Rectangle 110" width="5.242" height="118.023" transform="translate(108.43 437.597)" fill="#535461"/>
    <path id="Path_429" data-name="Path 429" d="M177.276,681.159l-.334,5.317-.46,7.524-.192,3.127-.468,7.525-.2,3.127-.46,7.524-5.292,85.334A14.447,14.447,0,0,1,155.447,814.2h-27.48a14.438,14.438,0,0,1-14.422-13.619l-5.292-85.334-.46-7.524-.192-3.127-.477-7.525-.192-3.127-.46-7.524-.334-5.317a7.524,7.524,0,0,1,7.474-7.951h56.2a7.524,7.524,0,0,1,7.466,8.009Z" transform="translate(-30.655 -125.891)" fill="#3f3d56"/>
    <path id="Path_430" data-name="Path 430" d="M161.058,670.52l-.468,7.508H91.048l-.468-7.508Z" transform="translate(-14.772 -109.943)" fill="#9d9cb5"/>
    <path id="Path_431" data-name="Path 431" d="M160.527,683.24l-.46,7.508H91.838l-.468-7.508Z" transform="translate(-14.901 -112.028)" fill="#9d9cb5"/>
    <path id="Path_432" data-name="Path 432" d="M160,695.97l-.46,7.5H92.628l-.468-7.5Z" transform="translate(-15.031 -114.116)" fill="#9d9cb5"/>
    <path id="Path_433" data-name="Path 433" d="M83.791,590.325c30.532,22.088,43.248,56.633,43.248,56.633S90.253,645.7,59.713,623.608,16.44,567,16.44,567,53.225,568.237,83.791,590.325Z" transform="translate(-15.95 -108.486)" fill="#1078ad"/>
    <path id="Path_434" data-name="Path 434" d="M16.44,567s38.182,21.193,50.43,38.742,60.136,41.233,60.136,41.233" transform="translate(-15.95 -108.486)" fill="none" stroke="#535461" stroke-miterlimit="10" stroke-width="2"/>
    <path id="Path_435" data-name="Path 435" d="M113.343,539.188C129.964,551.2,136.886,570,136.886,570s-20.065-.685-36.643-12.7S76.7,526.48,76.7,526.48,96.731,527.166,113.343,539.188Z" transform="translate(-25.831 -101.842)" fill="#1078ad"/>
    <path id="Path_436" data-name="Path 436" d="M76.7,526.48s20.784,11.537,27.455,21.085S136.886,570,136.886,570" transform="translate(-25.831 -101.842)" fill="none" stroke="#535461" stroke-miterlimit="10" stroke-width="2"/>
    <path id="Path_437" data-name="Path 437" d="M173.035,571.989c-19.087,20.976-23.125,48.39-23.125,48.39s26.912-6.6,45.982-27.589,23.125-48.39,23.125-48.39S192.121,551.013,173.035,571.989Z" transform="translate(-37.835 -104.78)" fill="#1078ad"/>
    <path id="Path_438" data-name="Path 438" d="M219.033,544.41s-24.864,21.5-31.184,36.317S149.91,620.38,149.91,620.38" transform="translate(-37.835 -104.782)" fill="none" stroke="#535461" stroke-miterlimit="10" stroke-width="2"/>
  </g>
</svg>
