<svg id="Calque_2" data-name="Calque 2" xmlns="http://www.w3.org/2000/svg" xmlns:xlink="http://www.w3.org/1999/xlink" width="63.786" height="63.786" viewBox="0 0 63.786 63.786">
  <defs>
    <clipPath id="clip-path">
      <circle id="Ellipse_294" data-name="Ellipse 294" cx="31.893" cy="31.893" r="31.893" fill="none"/>
    </clipPath>
  </defs>
  <g id="Layer_1" data-name="Layer 1">
    <g id="Group_141" data-name="Group 141" clip-path="url(#clip-path)">
      <path id="Path_870" data-name="Path 870" d="M39.416,39.384l-2.2-3.345c-.143.452-.271.836-.4,1.228-.218.678-.444,1.348-.648,2.026a3.262,3.262,0,0,1-.557,1.107A2.7,2.7,0,0,1,33.7,41.41a3.352,3.352,0,0,1-2.026-.618c-1.846-1.107-3.691-2.162-5.506-3.292L22.4,35.241a2.84,2.84,0,0,1-1.235-1.386A2.689,2.689,0,0,1,21,32.348a2.757,2.757,0,0,1,1.4-1.936,2.855,2.855,0,0,1,1.439-.309,3.382,3.382,0,0,1,1.717.648l3.97,2.373,2.26,1.326a.934.934,0,0,0,.211.1c.105-.3.2-.58.294-.859l.475-1.469.527-1.876c.218-.663.422-1.333.655-1.989s.482-1.288.753-1.921a2.893,2.893,0,0,1,.392-.678,10.343,10.343,0,0,1,2.32-2.192,5.567,5.567,0,0,1,2.087-.844,4.105,4.105,0,0,1,2.893.625A4.911,4.911,0,0,1,43.9,24.657a9.145,9.145,0,0,1,.625,1.047c.572,1.047,1.153,2.094,1.7,3.149.625,1.183,1.235,2.373,1.846,3.571.437.866.881,1.725,1.3,2.6s.9,1.9,1.311,2.855.753,1.71,1.137,2.584.67,1.755.972,2.644a12.1,12.1,0,0,1,.49,1.672,6.35,6.35,0,0,1,.121,1.891,12.051,12.051,0,0,1-.286,1.868,5.183,5.183,0,0,1-1.341,2.4c-.1.753-.188,1.507-.286,2.192-.075.535-.166,1.07-.249,1.612-.038.256-.053.52-.09.753-.083.61-.188,1.228-.271,1.846s-.166,1.371-.264,2.049-.181,1.175-.256,1.763-.173,1.371-.264,2.056c-.068.5-.136,1-.2,1.507a3.683,3.683,0,0,0,0,.5V76.965a3.767,3.767,0,0,1-.211,1.4,3.232,3.232,0,0,1-1.371,1.612,3.081,3.081,0,0,1-1.695.467,3.239,3.239,0,0,1-2.96-2.049,3.766,3.766,0,0,1-.294-1.348V65.085a16.835,16.835,0,0,1,.2-1.823,6.522,6.522,0,0,1,.128-.927c.09-.625.188-1.243.279-1.868s.166-1.371.264-2.056.173-1.153.256-1.733a6.47,6.47,0,0,0,.06-1.017c-.181.5-.362,1-.535,1.507-.218.61-.422,1.228-.64,1.846l-.64,1.785c-.2.572-.392,1.153-.625,1.725a5.793,5.793,0,0,0-.407,1.959c-.045,1.341-.113,2.682-.166,4.023,0,.9-.045,1.793-.083,2.689-.053,1.951-.151,3.894-.226,5.853a4.023,4.023,0,0,1-.181,1.266,3.209,3.209,0,0,1-1.763,1.876,3.344,3.344,0,0,1-.8.234h-.5A2.893,2.893,0,0,1,35.4,79.081a3.1,3.1,0,0,1-.565-2.32v-.316c.053-1.348.113-2.689.173-4.03v-.5c.053-1.228.105-2.456.166-3.684v-.377c.053-1.266.113-2.531.166-3.766a4.105,4.105,0,0,0,0-.527,4.452,4.452,0,0,1,.324-1.793c.211-.625.377-1.266.572-1.891s.414-1.318.618-1.974l.655-1.951c.2-.64.414-1.273.61-1.913s.414-1.311.625-1.966.4-1.258.6-1.883c.143-.429.294-.851.414-1.273a2.26,2.26,0,0,0,.045-.55,1.837,1.837,0,0,0,0-.2c-.045-1.122-.083-2.26-.128-3.36-.06-1.4-.121-2.8-.188-4.2C39.469,40.175,39.439,39.79,39.416,39.384ZM34.806,11.4a7.872,7.872,0,0,0-11.3,2.621,7.623,7.623,0,0,0-.7,6.192,7.533,7.533,0,0,0,2.1,3.4,1.838,1.838,0,0,1,.2-.309,1.3,1.3,0,0,1,1.062-.429.791.791,0,0,1,.753,1.092,7.247,7.247,0,0,1-.407.8A7.872,7.872,0,0,0,34.806,11.4ZM21.172,27.218a.2.2,0,0,1-.083.136,1.017,1.017,0,0,0-.249,1.582,1.153,1.153,0,0,0,1.567.362,2.569,2.569,0,0,0,.452-.49c.866.46,1.318.2,1.6-.158a1.183,1.183,0,0,0-.181-1.71,2.967,2.967,0,0,1,.143-.271c.3-.5.61-1.009.911-1.507a1,1,0,0,0,.075-.211h-.06a.2.2,0,0,0-.128.09l-1.4,2.147.083.143.2-.09a.821.821,0,0,1,0,1.107c-.414.527-.911.452-1.431.158a1.387,1.387,0,0,0-.09.136.814.814,0,0,1-.949.444,1.055,1.055,0,0,1-.791-.753h0c-.173-.49.2-.753.5-1.032l-.2-.151Zm.038-.038a3.088,3.088,0,0,1-.173-.55.972.972,0,0,1,.52-.851.927.927,0,0,1,1.04.136l-.083.218a.4.4,0,0,0,.444-.083c.475-.422.964-.829,1.446-1.25l.4-.354-.045-.075a1.024,1.024,0,0,0-.211.083l-.5.4-1.168.919-.075-.053a1.1,1.1,0,0,0-1.16-.452,1.077,1.077,0,0,0-.844.994.9.9,0,0,0,.4.927Zm4.113-1.032a6.471,6.471,0,0,0-.151,2.26,3.766,3.766,0,0,0,.151-2.29Zm-4.429,2.185.249.218h.053a.753.753,0,0,1,.2-.874.241.241,0,0,0-.136,0,.708.708,0,0,0-.362.67Zm.475-1.4a1.823,1.823,0,0,1,0-.452,1.7,1.7,0,0,1,.188-.392l-.053-.045-.316.279c0,.241-.105.49.188.61Zm0,0Z" transform="translate(-5.074 -2.473)" fill="#1078ad"/>
    </g>
  </g>
</svg>
