<svg id="Calque_2" data-name="Calque 2" xmlns="http://www.w3.org/2000/svg" width="47.626" height="50.655" viewBox="0 0 47.626 50.655">
  <g id="Layer_1" data-name="Layer 1">
    <path id="Path_867" data-name="Path 867" d="M37.051,22.876a8.263,8.263,0,0,1,2.007,3.074c.983,2.519.722,2.981.227,3.3s-2.393-2.964-2.8-6.08a.344.344,0,0,1,.571-.294Zm-6.718-3.687a21.835,21.835,0,0,0-.479,3.955c-.067,1.2.613,3.409,1.209,2.335a8.188,8.188,0,0,0,.411-4.577,8.507,8.507,0,0,0-.5-1.747.341.341,0,0,0-.68.034ZM20.054,6.962a8.641,8.641,0,0,0-5.039,0A34.313,34.313,0,0,0,4.1,14.6c-4.224,4.543-4.1,6-4.1,7.239s1.209,3.132,3.166,4.921l8.473,7.76L4.963,45.079a3.225,3.225,0,0,0-.479,1.948A5.475,5.475,0,0,0,4.8,48.514a3.359,3.359,0,0,0,3.359,2.133h.437a3.183,3.183,0,0,0,2.116-1.386l8.4-12.647-1.125.042a17.224,17.224,0,0,1-6.046-11.673s-.747-1.545-1.377-1.68a14.276,14.276,0,0,0,1.092-.957A44.9,44.9,0,0,1,13.52,14.3c1.125-2.754,2.377-4.585,3.745-5.131s2.922.63,3.468,1.629a2.8,2.8,0,0,1,0,2.209,18.559,18.559,0,0,0-2.007,3.964s3.46-1.5,4.384-4.669S21.263,7.3,20.054,6.962ZM20.4,32.037A2.519,2.519,0,0,1,21.12,34.1a2.385,2.385,0,0,1-1.545,1.831H17.9s-4.493-4.266-5.4-9.951a20.252,20.252,0,0,1,1.36-11.354A11.4,11.4,0,0,1,16.8,10.077a1.478,1.478,0,0,1,1.134-.386,2.864,2.864,0,0,1,1.982.84,2.234,2.234,0,0,1,.328.647,2.763,2.763,0,0,1-.3,2.209c-.84,1.36-2.62,4.669-2.78,7.2v4.081s.9,4.938,3.242,7.373ZM45.1,47.783c-2.242.353-3.057.244-3.359.462s-.89.84-4.09,1.209a17.358,17.358,0,0,1-6.114,0c-1.923-.328-2.99-.143-4.09-1s.143-1.68,1.461-1.99,1.6-.395,1.948-.84a7.675,7.675,0,0,1,2.847-1.562s-.252-9.884-.428-11.555-1.4-15.309-2.351-17.635c0,0,.764-.47,1.092-.4s1.495,3.611,2.108,5.5,1.747,5.635,2.461,8.02,2.7,10.128,3.057,11.757.428,3.7.638,4.2,3.057.84,3.838.84a7.81,7.81,0,0,1,3.359,1.209C47.943,46.431,47.338,47.422,45.1,47.783Zm1.68,1.931c0,.47-.915.84-2.049.84s-2.049-.386-2.049-.84.915-.84,2.049-.84,2.015.378,2.015.84ZM28.729,45.407c-1.083,0-1.957-.277-1.957-.63s.84-.621,1.957-.621,1.957.277,1.957.621S29.812,45.407,28.729,45.407Zm1.5-32.256a6.567,6.567,0,1,1,4.652-1.923A6.575,6.575,0,0,1,30.232,13.151Z" transform="translate(0)" fill="#1078ad"/>
  </g>
</svg>
