<svg xmlns="http://www.w3.org/2000/svg" xmlns:xlink="http://www.w3.org/1999/xlink" width="72" height="72" viewBox="0 0 72 72">
  <defs>
    <clipPath id="clip-path">
      <circle id="Ellipse_293" data-name="Ellipse 293" cx="36" cy="36" r="36" transform="translate(0 -0.188)" fill="none"/>
    </clipPath>
  </defs>
  <g id="Calque_2" data-name="Calque 2" transform="translate(0 0.188)">
    <g id="Layer_1" data-name="Layer 1">
      <g id="Group_140" data-name="Group 140" clip-path="url(#clip-path)">
        <path id="Path_869" data-name="Path 869" d="M58.264,61.722H51.88A77.324,77.324,0,0,0,50.87,53.4a.538.538,0,0,0-.815-.383,2.046,2.046,0,0,0-.505.44c.75,1.549,1.231,21.9,1.231,21.9H30.962V58.29L45.2,53.4a4.263,4.263,0,1,0-2.911-8.014c-2.217.816-4.7,1.81-5.5,2.169a9.529,9.529,0,0,0-2.226,1.312l.212.408,8.152-2.927a3.106,3.106,0,0,1,3.889,1.687h0A3.106,3.106,0,0,1,45,52.192L26.071,58.844c-4.435-.261-3.057-4.687-3.057-4.687S30.636,41.5,31.37,40.975A2.951,2.951,0,0,1,32.69,40.4h5.217a9.163,9.163,0,0,0,7.647,0h4.973C58.37,45.507,58.264,61.722,58.264,61.722ZM32.78,31.241A9.016,9.016,0,1,1,41.8,40.257a9.016,9.016,0,0,1-9.016-9.016ZM38.1,35.113a.62.62,0,0,0,.815.245,8.172,8.172,0,0,1,7.223-.815.75.75,0,0,0,.954-.4h0a.75.75,0,0,0-.481-1.043A10.41,10.41,0,0,0,38.3,34.331.587.587,0,0,0,38.1,35.113ZM33.677,20.44s1.255-3.88-1.9-5.454a1.557,1.557,0,0,0-1.989,1.394s3.351,2.633,3.889,4.092ZM22.81,18.817a1.609,1.609,0,0,0-.326,2.584h7.337C27.9,18.883,24.514,17.489,22.81,18.817Zm3.391,6.44c-2.323.2-1.72,2.723-.66,2.584s3.383-1.19,4.647-1.19a5.552,5.552,0,0,0-3.954-1.394ZM43.321,19a.318.318,0,0,0,.359,0,3.175,3.175,0,0,1,4.94,1.043.3.3,0,0,0,.432.1l.188-.122a.318.318,0,0,0,.082-.44c-2.446-3.456-5.111-1.8-6.008-1.076a.3.3,0,0,0,.016.5Zm.408,1.345a.318.318,0,0,0,.057.522.31.31,0,0,0,.383-.057c1.443-1.573,2.837-.269,3.351.326a.31.31,0,0,0,.457,0h0a.318.318,0,0,0,.106-.448,2.78,2.78,0,0,0-4.345-.342Z" transform="translate(-4.06 -2.758)" fill="#1078ad"/>
      </g>
    </g>
  </g>
</svg>
