<svg id="Group_140" data-name="Group 140" xmlns="http://www.w3.org/2000/svg" width="499.362" height="442.132" viewBox="0 0 499.362 442.132">
  <path id="icon-tissues" d="M497.4,239.506l.164-.123-74.9-131.056.024-.025a12.431,12.431,0,0,0-10.72-6.365H363.371l10.954-63.182H374.3a13.351,13.351,0,0,0-4.775-12.828C313.935-17.839,282.31,4.3,254.458,23.888c-27.409,19.242-53.343,37.427-110.693,1.3l-.024-.025a12,12,0,0,0-13.506.467,13.34,13.34,0,0,0-5.173,13.123l10.954,63.182H87.4A12.432,12.432,0,0,0,76.681,108.3L1.779,239.359l.094.246v.025A13.327,13.327,0,0,0,0,246.116v183.5a13.476,13.476,0,0,0,3.675,9.264,12.158,12.158,0,0,0,8.825,3.834H486.863a12.212,12.212,0,0,0,8.849-3.834,13.451,13.451,0,0,0,3.651-9.264v-183.5a13.3,13.3,0,0,0-1.966-6.61ZM268.318,45.665c25.583-17.989,42.9-30.129,80.025-3.441l-21.7,125.256H172.718L154.18,60.431c56.083,26,87.94,3.662,114.132-14.77ZM94.474,128.16h46.065l6.811,39.32H124.856c-6.9,0-12.5,5.873-12.5,13.1,0,7.248,5.595,13.122,12.5,13.122H374.513c6.9,0,12.5-5.873,12.5-13.122,0-7.226-5.595-13.1-12.5-13.1H352.019l6.811-39.32H404.9l59.922,104.86H34.55ZM474.389,416.495H24.976V259.217H474.389Z" transform="translate(0 -0.583)" fill="#0069cc"/>
  <path id="Path_441" data-name="Path 441" d="M0,0H451.261V159.051H0Z" transform="translate(23.673 257.441)" fill="#64e5f9"/>
  <path id="Path_442" data-name="Path 442" d="M424.22-2678.19l-.068-.386-18.644-105.131,7.138,2.905,19.379,6.646,11.006,1.707,10.788.854,7.138-.854,12.351-1.707,13.076-4.6,11.134-5.812,15.256-9.136,10.788-7.629,13.676-9.08,11.388-5.086,6.774-2.051h12.35l7.991,2.051,8.119,4.105,9.917,5.813,5.085,2.907h.981l-22.049,126.117-153.749-.333Z" transform="translate(-251.26 2843.773)" fill="#64e5f9"/>
</svg>
