<svg xmlns="http://www.w3.org/2000/svg" width="446.83" height="363.25" viewBox="0 0 446.83 363.25">
  <g id="_01" data-name="01" transform="translate(1.612 1.919)">
    <g id="Group_13" data-name="Group 13" transform="translate(0 86.685)">
      <g id="Group_12" data-name="Group 12" transform="translate(0 0)">
        <path id="Path_68" data-name="Path 68" d="M1727.851,570.668s-11.23-49.549-62.23-69.23c-40.472-15.592-75.122-17.048-75.122-17.048s-40.955-18.018-71.724-37.353c-50.242-31.531-66.25-1.871-27.442,24.948" transform="translate(-1394.602 -433.447)" fill="none" stroke="#3b3858" stroke-linecap="round" stroke-linejoin="round" stroke-width="3"/>
        <path id="Path_69" data-name="Path 69" d="M1479.839,480.764c-43.105-27.373-26.542-60.221,21.622-28.829A740.067,740.067,0,0,0,1590.647,501a61.281,61.281,0,0,1,10.326-12.543" transform="translate(-1420.74 -423.375)" fill="none" stroke="#3b3858" stroke-linecap="round" stroke-linejoin="round" stroke-width="3"/>
        <path id="Path_70" data-name="Path 70" d="M1579.553,510.039s-23.354-3.95-89.882-35.412c-52.667-24.948-54.191,9.7-17.323,33.195,55.163,35.2,116.354,53.638,116.354,53.638" transform="translate(-1434.731 -375.797)" fill="none" stroke="#3b3858" stroke-linecap="round" stroke-linejoin="round" stroke-width="3"/>
        <path id="Path_71" data-name="Path 71" d="M1501.594,476.825s-7,13.236-7.136,24.74" transform="translate(-1350.742 -356.582)" fill="none" stroke="#3b3858" stroke-linecap="round" stroke-linejoin="round" stroke-width="3"/>
        <path id="Path_72" data-name="Path 72" d="M1639.824,491.974s-35.133-13.1-54.331,27.858c0,0-44-4.158-90.088,5.406s-30.492,43.035,5.268,43.173,68.471,2.772,107.139,16.147c34.373,11.85,62.575,2.634,79.623-16.909" transform="translate(-1399.646 -333.27)" fill="none" stroke="#3b3858" stroke-linecap="round" stroke-linejoin="round" stroke-width="3"/>
        <path id="Path_73" data-name="Path 73" d="M1561.757,479.65s44.977,18.226,89.882,25.848" transform="translate(-1231.49 -351.576)" fill="none" stroke="#3b3858" stroke-linecap="round" stroke-linejoin="round" stroke-width="3"/>
        <line id="Line_11" data-name="Line 11" x2="82.743" y2="32.432" transform="translate(281.967 240.27)" fill="none" stroke="#3b3858" stroke-linecap="round" stroke-linejoin="round" stroke-width="3"/>
        <path id="Path_74" data-name="Path 74" d="M1594.433,509.919s-38.6-9.563-100.552-49.133c-51.491-32.848-68.747,3.049-30.631,27.234,11.849,7.554,29.245,16.84,29.245,16.84" transform="translate(-1442.612 -408.387)" fill="none" stroke="#3b3858" stroke-linecap="round" stroke-linejoin="round" stroke-width="3"/>
      </g>
    </g>
    <g id="bubble-1" transform="translate(66.584 223.491)">
      <circle id="Ellipse_21" data-name="Ellipse 21" cx="18.156" cy="18.156" r="18.156" transform="translate(0 0)" fill="#64e5f9"/>
    </g>
    <g id="bubble-2" transform="translate(243.297 256.824)">
      <circle id="Ellipse_22" data-name="Ellipse 22" cx="19.958" cy="19.958" r="19.958" transform="translate(0 0)" fill="#64e5f9"/>
    </g>
    <g id="bubble-3" transform="translate(284.669 196.741)">
      <circle id="Ellipse_23" data-name="Ellipse 23" cx="28.274" cy="28.274" r="28.274" transform="translate(0)" fill="#64e5f9"/>
    </g>
    <g id="bubble-4" transform="translate(150.921 234.371)">
      <circle id="Ellipse_24" data-name="Ellipse 24" cx="13.028" cy="13.028" r="13.028" transform="translate(0)" fill="#64e5f9"/>
    </g>
    <g id="bubble-5" transform="translate(29.717 138.183)">
      <circle id="Ellipse_25" data-name="Ellipse 25" cx="32.779" cy="32.779" r="32.779" fill="#64e5f9"/>
    </g>
    <g id="bubble-6" transform="translate(146.07 143.381)">
      <circle id="Ellipse_26" data-name="Ellipse 26" cx="59.528" cy="59.528" r="59.528" transform="translate(0)" fill="#64e5f9"/>
    </g>
    <g id="bubble-10" transform="translate(101.303 138.183)">
      <circle id="Ellipse_27" data-name="Ellipse 27" cx="32.779" cy="32.779" r="32.779" transform="translate(0)" fill="#64e5f9"/>
    </g>
    <g id="bubble-11" transform="translate(225.488 144.351)">
      <circle id="Ellipse_28" data-name="Ellipse 28" cx="42.481" cy="42.481" r="42.481" fill="#64e5f9"/>
    </g>
    <g id="bubble-12" transform="translate(299.638 152.805)">
      <circle id="Ellipse_29" data-name="Ellipse 29" cx="28.274" cy="28.274" r="28.274" transform="translate(0)" fill="#64e5f9"/>
    </g>
    <g id="hand-top" transform="translate(17.798)">
      <g id="Group_16" data-name="Group 16" transform="translate(0)">
        <g id="Group_14" data-name="Group 14">
          <path id="Path_75" data-name="Path 75" d="M1854.573,402.175c-52.043,18.711-92.1,23.493-92.1,23.493-104.364-23.215-201.106,2.079-234.646,14.345-23.078,8.454-28.344,23.978-19.96,30.215a183.121,183.121,0,0,0-22.521,7.831c-17.534,7.415-28.206,29.314-2.149,32.293-49.479,14.83-42.548,48.025,3.674,38.184,13.721-2.911,34.372-6.861,34.372-6.861-47.541,14.207-44.628,49.688,1.8,38.947,43.727-10.118,101.038-18.641,133.331-23.008a420.438,420.438,0,0,0-52.667,39.57c-34.926,31.531-4.573,52.6,26.4,34.58,30.907-18.018,58.626-31.878,98.751-39.916,31.811-6.376,50.868-24.81,58.073-46.846l87.8-13.86" transform="translate(-1449.033 -402.175)" fill="#fff"/>
        </g>
        <g id="Group_15" data-name="Group 15" transform="translate(0.556)">
          <path id="Path_76" data-name="Path 76" d="M1471.364,480.006c-26.057-2.98-15.385-24.878,2.147-32.293,38.253-16.147,123.842-28.413,123.842-28.413" transform="translate(-1437.688 -371.83)" fill="none" stroke="#3b3858" stroke-linecap="round" stroke-linejoin="round" stroke-width="3"/>
          <path id="Path_77" data-name="Path 77" d="M1592.679,445.6s-40.124,2.564-95.633,19.126c-47.539,14.206-44.628,49.688,1.8,38.946,63.754-14.761,158.556-26.264,158.556-26.264" transform="translate(-1425.395 -325.227)" fill="none" stroke="#3b3858" stroke-linecap="round" stroke-linejoin="round" stroke-width="3"/>
          <path id="Path_78" data-name="Path 78" d="M1567.495,471.426A420.551,420.551,0,0,0,1514.827,511c-34.928,31.531-4.574,52.6,26.4,34.581,30.909-18.018,58.628-31.878,98.752-39.917,35.619-7.138,55.3-29.383,60.155-54.885" transform="translate(-1360.64 -316.057)" fill="none" stroke="#3b3858" stroke-linecap="round" stroke-linejoin="round" stroke-width="3"/>
          <path id="Path_79" data-name="Path 79" d="M1819.362,402.175c-52.044,18.711-92.1,23.493-92.1,23.493-104.364-23.215-201.107,2.079-234.647,14.345-23.077,8.454-28.343,23.978-19.958,30.215" transform="translate(-1414.379 -402.175)" fill="none" stroke="#3b3858" stroke-linecap="round" stroke-linejoin="round" stroke-width="3"/>
          <line id="Line_12" data-name="Line 12" y1="13.86" x2="87.802" transform="translate(337.346 128.966)" fill="none" stroke="#3b3858" stroke-linecap="round" stroke-linejoin="round" stroke-width="3"/>
          <path id="Path_80" data-name="Path 80" d="M1607.855,432.825s-63.131,6.514-120.719,22.037c-53.083,14.276-47.747,49.48-.555,39.362,13.722-2.911,34.373-6.861,34.373-6.861" transform="translate(-1449.234 -347.864)" fill="none" stroke="#3b3858" stroke-linecap="round" stroke-linejoin="round" stroke-width="3"/>
        </g>
      </g>
    </g>
  </g>
</svg>
